  0
SECTION
  2
HEADER
  9
$ACADVER
  1
AC1015
  9
$ACADMAINTVER
 70
     6
  9
$DWGCODEPAGE
  3
ANSI_1252
  9
$INSBASE
 10
0.0
 20
0.0
 30
0.0
  9
$EXTMIN
 10
-199.8101964366
 20
-182.7392638251
 30
0.0
  9
$EXTMAX
 10
199.2514154043
 20
192.0616443459
 30
0.0
  9
$LIMMIN
 10
0.0
 20
0.0
  9
$LIMMAX
 10
420.0
 20
297.0
  9
$ORTHOMODE
 70
     0
  9
$REGENMODE
 70
     1
  9
$FILLMODE
 70
     1
  9
$QTEXTMODE
 70
     0
  9
$MIRRTEXT
 70
     1
  9
$LTSCALE
 40
1.0
  9
$ATTMODE
 70
     1
  9
$TEXTSIZE
 40
3.175
  9
$TRACEWID
 40
1.0
  9
$TEXTSTYLE
  7
Standard
  9
$CLAYER
  8
0
  9
$CELTYPE
  6
ByLayer
  9
$CECOLOR
 62
   256
  9
$CELTSCALE
 40
1.0
  9
$DISPSILH
 70
     0
  9
$DIMSCALE
 40
1.0
  9
$DIMASZ
 40
3.302
  9
$DIMEXO
 40
0.0
  9
$DIMDLI
 40
3.75
  9
$DIMRND
 40
0.0
  9
$DIMDLE
 40
0.0
  9
$DIMEXE
 40
3.175
  9
$DIMTP
 40
0.0
  9
$DIMTM
 40
0.0
  9
$DIMTXT
 40
3.175
  9
$DIMCEN
 40
2.5
  9
$DIMTSZ
 40
0.0
  9
$DIMTOL
 70
     0
  9
$DIMLIM
 70
     0
  9
$DIMTIH
 70
     1
  9
$DIMTOH
 70
     1
  9
$DIMSE1
 70
     0
  9
$DIMSE2
 70
     0
  9
$DIMTAD
 70
     0
  9
$DIMZIN
 70
     1
  9
$DIMBLK
  1

  9
$DIMASO
 70
     1
  9
$DIMSHO
 70
     1
  9
$DIMPOST
  1

  9
$DIMAPOST
  1

  9
$DIMALT
 70
     0
  9
$DIMALTD
 70
     3
  9
$DIMALTF
 40
0.0393700787
  9
$DIMLFAC
 40
1.0
  9
$DIMTOFL
 70
     1
  9
$DIMTVP
 40
0.0
  9
$DIMTIX
 70
     0
  9
$DIMSOXD
 70
     0
  9
$DIMSAH
 70
     0
  9
$DIMBLK1
  1

  9
$DIMBLK2
  1

  9
$DIMSTYLE
  2
ISO-25
  9
$DIMCLRD
 70
     0
  9
$DIMCLRE
 70
     0
  9
$DIMCLRT
 70
     0
  9
$DIMTFAC
 40
1.0
  9
$DIMGAP
 40
1.524
  9
$DIMJUST
 70
     0
  9
$DIMSD1
 70
     0
  9
$DIMSD2
 70
     0
  9
$DIMTOLJ
 70
     0
  9
$DIMTZIN
 70
     1
  9
$DIMALTZ
 70
     0
  9
$DIMALTTZ
 70
     0
  9
$DIMUPT
 70
     0
  9
$DIMDEC
 70
     2
  9
$DIMTDEC
 70
     2
  9
$DIMALTU
 70
     2
  9
$DIMALTTD
 70
     3
  9
$DIMTXSTY
  7
Standard
  9
$DIMAUNIT
 70
     0
  9
$DIMADEC
 70
     2
  9
$DIMALTRND
 40
0.0
  9
$DIMAZIN
 70
     0
  9
$DIMDSEP
 70
    44
  9
$DIMATFIT
 70
     3
  9
$DIMFRAC
 70
     0
  9
$DIMLDRBLK
  1

  9
$DIMLUNIT
 70
     2
  9
$DIMLWD
 70
    -2
  9
$DIMLWE
 70
    -2
  9
$DIMTMOVE
 70
     0
  9
$LUNITS
 70
     2
  9
$LUPREC
 70
     2
  9
$SKETCHINC
 40
1.0
  9
$FILLETRAD
 40
0.0
  9
$AUNITS
 70
     0
  9
$AUPREC
 70
     2
  9
$MENU
  1
.
  9
$ELEVATION
 40
0.0
  9
$PELEVATION
 40
0.0
  9
$THICKNESS
 40
0.0
  9
$LIMCHECK
 70
     0
  9
$CHAMFERA
 40
0.0
  9
$CHAMFERB
 40
0.0
  9
$CHAMFERC
 40
0.0
  9
$CHAMFERD
 40
0.0
  9
$SKPOLY
 70
     0
  9
$TDCREATE
 40
2460726.384926516
  9
$TDUCREATE
 40
2460726.71825985
  9
$TDUPDATE
 40
2460726.385013484
  9
$TDUUPDATE
 40
2460726.718346817
  9
$TDINDWG
 40
0.0000000116
  9
$TDUSRTIMER
 40
0.0000000116
  9
$USRTIMER
 70
     1
  9
$ANGBASE
 50
0.0
  9
$ANGDIR
 70
     0
  9
$PDMODE
 70
     0
  9
$PDSIZE
 40
-1.0
  9
$PLINEWID
 40
0.0
  9
$SPLFRAME
 70
     0
  9
$SPLINETYPE
 70
     6
  9
$SPLINESEGS
 70
     8
  9
$HANDSEED
  5
27B
  9
$SURFTAB1
 70
     6
  9
$SURFTAB2
 70
     6
  9
$SURFTYPE
 70
     6
  9
$SURFU
 70
     6
  9
$SURFV
 70
     6
  9
$UCSBASE
  2

  9
$UCSNAME
  2

  9
$UCSORG
 10
0.0
 20
0.0
 30
0.0
  9
$UCSXDIR
 10
1.0
 20
0.0
 30
0.0
  9
$UCSYDIR
 10
0.0
 20
1.0
 30
0.0
  9
$UCSORTHOREF
  2

  9
$UCSORTHOVIEW
 70
     0
  9
$UCSORGTOP
 10
0.0
 20
0.0
 30
0.0
  9
$UCSORGBOTTOM
 10
0.0
 20
0.0
 30
0.0
  9
$UCSORGLEFT
 10
0.0
 20
0.0
 30
0.0
  9
$UCSORGRIGHT
 10
0.0
 20
0.0
 30
0.0
  9
$UCSORGFRONT
 10
0.0
 20
0.0
 30
0.0
  9
$UCSORGBACK
 10
0.0
 20
0.0
 30
0.0
  9
$PUCSBASE
  2

  9
$PUCSNAME
  2

  9
$PUCSORG
 10
0.0
 20
0.0
 30
0.0
  9
$PUCSXDIR
 10
1.0
 20
0.0
 30
0.0
  9
$PUCSYDIR
 10
0.0
 20
1.0
 30
0.0
  9
$PUCSORTHOREF
  2

  9
$PUCSORTHOVIEW
 70
     0
  9
$PUCSORGTOP
 10
0.0
 20
0.0
 30
0.0
  9
$PUCSORGBOTTOM
 10
0.0
 20
0.0
 30
0.0
  9
$PUCSORGLEFT
 10
0.0
 20
0.0
 30
0.0
  9
$PUCSORGRIGHT
 10
0.0
 20
0.0
 30
0.0
  9
$PUCSORGFRONT
 10
0.0
 20
0.0
 30
0.0
  9
$PUCSORGBACK
 10
0.0
 20
0.0
 30
0.0
  9
$USERI1
 70
     0
  9
$USERI2
 70
     0
  9
$USERI3
 70
     0
  9
$USERI4
 70
     0
  9
$USERI5
 70
     0
  9
$USERR1
 40
0.0
  9
$USERR2
 40
0.0
  9
$USERR3
 40
0.0
  9
$USERR4
 40
0.0
  9
$USERR5
 40
0.0
  9
$WORLDVIEW
 70
     1
  9
$SHADEDGE
 70
     3
  9
$SHADEDIF
 70
    70
  9
$TILEMODE
 70
     1
  9
$MAXACTVP
 70
    64
  9
$PINSBASE
 10
0.0
 20
0.0
 30
0.0
  9
$PLIMCHECK
 70
     0
  9
$PEXTMIN
 10
1.0000000000E+20
 20
1.0000000000E+20
 30
1.0000000000E+20
  9
$PEXTMAX
 10
-1.0000000000E+20
 20
-1.0000000000E+20
 30
-1.0000000000E+20
  9
$PLIMMIN
 10
0.0
 20
0.0
  9
$PLIMMAX
 10
420.0
 20
297.0
  9
$UNITMODE
 70
     0
  9
$VISRETAIN
 70
     1
  9
$PLINEGEN
 70
     0
  9
$PSLTSCALE
 70
     1
  9
$TREEDEPTH
 70
  3020
  9
$CMLSTYLE
  2
Standard
  9
$CMLJUST
 70
     0
  9
$CMLSCALE
 40
20.0
  9
$PROXYGRAPHICS
 70
     1
  9
$MEASUREMENT
 70
     1
  9
$CELWEIGHT
370
    -1
  9
$ENDCAPS
280
     0
  9
$JOINSTYLE
280
     0
  9
$LWDISPLAY
290
     1
  9
$INSUNITS
 70
     4
  9
$HYPERLINKBASE
  1

  9
$STYLESHEET
  1

  9
$XEDIT
290
     1
  9
$CEPSNTYPE
380
     0
  9
$PSTYLEMODE
290
     1
  9
$FINGERPRINTGUID
  2
{8b4072a6-7653-4f78-a030-3e24aa7010dd}
  9
$VERSIONGUID
  2
{FAEB1C32-E019-11D5-929B-00C0DF256EC4}
  9
$EXTNAMES
290
     1
  9
$PSVPSCALE
 40
0.0
  9
$OLESTARTUP
290
     0
  0
ENDSEC
  0
SECTION
  2
CLASSES
  0
CLASS
  1
ACDBDICTIONARYWDFLT
  2
AcDbDictionaryWithDefault
  3
ObjectDBX Classes
 90
        0
280
     0
281
     0
  0
CLASS
  1
VISUALSTYLE
  2
AcDbVisualStyle
  3
ObjectDBX Classes
 90
     4095
280
     0
281
     0
  0
CLASS
  1
MATERIAL
  2
AcDbMaterial
  3
ObjectDBX Classes
 90
     1153
280
     0
281
     0
  0
CLASS
  1
SCALE
  2
AcDbScale
  3
ObjectDBX Classes
 90
     1153
280
     0
281
     0
  0
CLASS
  1
TABLESTYLE
  2
AcDbTableStyle
  3
ObjectDBX Classes
 90
     4095
280
     0
281
     0
  0
CLASS
  1
MLEADERSTYLE
  2
AcDbMLeaderStyle
  3
ACDB_MLEADERSTYLE_CLASS
 90
     4095
280
     0
281
     0
  0
CLASS
  1
SUN
  2
AcDbSun
  3
SCENEOE
 90
     1153
280
     0
281
     0
  0
CLASS
  1
ACDBPLACEHOLDER
  2
AcDbPlaceHolder
  3
ObjectDBX Classes
 90
        0
280
     0
281
     0
  0
CLASS
  1
LAYOUT
  2
AcDbLayout
  3
ObjectDBX Classes
 90
        0
280
     0
281
     0
  0
ENDSEC
  0
SECTION
  2
TABLES
  0
TABLE
  2
VPORT
  5
8
330
0
100
AcDbSymbolTable
 70
     1
  0
VPORT
  5
29
330
8
100
AcDbSymbolTableRecord
100
AcDbViewportTableRecord
  2
*Active
 70
     0
 10
0.0
 20
0.0
 11
1.0
 21
1.0
 12
-0.2793905161
 22
4.6611902604
 13
0.0
 23
0.0
 14
10.0
 24
10.0
 15
10.0
 25
10.0
 16
0.0
 26
0.0
 36
1.0
 17
0.0
 27
0.0
 37
0.0
 40
382.2969263345
 41
1.0647295755
 42
50.0
 43
0.0
 44
0.0
 50
0.0
 51
0.0
 71
     0
 72
   100
 73
     1
 74
     3
 75
     0
 76
     0
 77
     0
 78
     0
281
     0
 65
     1
110
0.0
120
0.0
130
0.0
111
1.0
121
0.0
131
0.0
112
0.0
122
1.0
132
0.0
 79
     0
146
0.0
  0
ENDTAB
  0
TABLE
  2
LTYPE
  5
5
330
0
100
AcDbSymbolTable
 70
     6
  0
LTYPE
  5
14
330
5
100
AcDbSymbolTableRecord
100
AcDbLinetypeTableRecord
  2
ByBlock
 70
     0
  3

 72
    65
 73
     0
 40
0.0
  0
LTYPE
  5
15
330
5
100
AcDbSymbolTableRecord
100
AcDbLinetypeTableRecord
  2
ByLayer
 70
     0
  3

 72
    65
 73
     0
 40
0.0
  0
LTYPE
  5
16
330
5
100
AcDbSymbolTableRecord
100
AcDbLinetypeTableRecord
  2
Continuous
 70
     0
  3
Solid line
 72
    65
 73
     0
 40
0.0
  0
LTYPE
  5
5E
330
5
100
AcDbSymbolTableRecord
100
AcDbLinetypeTableRecord
  2
HIDDEN
 70
     0
  3
Hidden __ __ __ __ __ __ __ __ __ __ __ __ __ __
 72
    65
 73
     2
 40
1.905
 49
1.27
 74
     0
 49
-0.635
 74
     0
  0
LTYPE
  5
5F
330
5
100
AcDbSymbolTableRecord
100
AcDbLinetypeTableRecord
  2
PHANTOM
 70
     0
  3
Phantom ______  __  __  ______  __  __  ______
 72
    65
 73
     6
 40
12.7
 49
6.35
 74
     0
 49
-1.27
 74
     0
 49
1.27
 74
     0
 49
-1.27
 74
     0
 49
1.27
 74
     0
 49
-1.27
 74
     0
  0
LTYPE
  5
60
330
5
100
AcDbSymbolTableRecord
100
AcDbLinetypeTableRecord
  2
CENTER
 70
     0
  3
Center ____ _ ____ _ ____ _ ____ _ ____ _ ____
 72
    65
 73
     4
 40
10.16
 49
6.35
 74
     0
 49
-1.27
 74
     0
 49
1.27
 74
     0
 49
-1.27
 74
     0
  0
LTYPE
  5
61
330
5
100
AcDbSymbolTableRecord
100
AcDbLinetypeTableRecord
  2
CENTERX2
 70
     0
  3
Center (2x) ________  __  ________  __  _____
 72
    65
 73
     4
 40
20.32
 49
12.7
 74
     0
 49
-2.54
 74
     0
 49
2.54
 74
     0
 49
-2.54
 74
     0
  0
LTYPE
  5
62
330
5
100
AcDbSymbolTableRecord
100
AcDbLinetypeTableRecord
  2
DOT2
 70
     0
  3
Dot (.5x) ........................................
 72
    65
 73
     2
 40
0.635
 49
0.0
 74
     0
 49
-0.635
 74
     0
  0
ENDTAB
  0
TABLE
  2
LAYER
  5
2
330
0
100
AcDbSymbolTable
 70
     1
  0
LAYER
  5
10
330
2
100
AcDbSymbolTableRecord
100
AcDbLayerTableRecord
  2
0
 70
     0
 62
     7
  6
Continuous
370
    -3
390
F
  0
ENDTAB
  0
TABLE
  2
STYLE
  5
3
330
0
100
AcDbSymbolTable
 70
     1
  0
STYLE
  5
11
330
3
100
AcDbSymbolTableRecord
100
AcDbTextStyleTableRecord
  2
Standard
 70
     0
 40
0.0
 41
1.0
 50
0.0
 71
     0
 42
3.175
  3
txt
  4

  0
ENDTAB
  0
TABLE
  2
VIEW
  5
6
330
0
100
AcDbSymbolTable
 70
     0
  0
ENDTAB
  0
TABLE
  2
UCS
  5
7
330
0
100
AcDbSymbolTable
 70
     0
  0
ENDTAB
  0
TABLE
  2
APPID
  5
9
330
0
100
AcDbSymbolTable
 70
     1
  0
APPID
  5
12
330
9
100
AcDbSymbolTableRecord
100
AcDbRegAppTableRecord
  2
ACAD
 70
     0
  0
ENDTAB
  0
TABLE
  2
DIMSTYLE
  5
A
330
0
100
AcDbSymbolTable
 70
     1
100
AcDbDimStyleTable
  0
DIMSTYLE
105
27
330
A
100
AcDbSymbolTableRecord
100
AcDbDimStyleTableRecord
  2
ISO-25
 70
     0
 41
2.5
 42
0.625
 43
3.75
 44
1.25
 73
     0
 74
     0
 77
     1
 78
     8
140
2.5
141
2.5
143
0.0393700787
147
0.625
171
     3
172
     1
178
     0
271
     2
272
     2
274
     3
278
    44
283
     0
284
     8
340
11
  0
ENDTAB
  0
TABLE
  2
BLOCK_RECORD
  5
1
330
0
100
AcDbSymbolTable
 70
     1
  0
BLOCK_RECORD
  5
1F
330
1
100
AcDbSymbolTableRecord
100
AcDbBlockTableRecord
  2
*Model_Space
340
22
  0
BLOCK_RECORD
  5
1B
330
1
100
AcDbSymbolTableRecord
100
AcDbBlockTableRecord
  2
*Paper_Space
340
1E
  0
BLOCK_RECORD
  5
23
330
1
100
AcDbSymbolTableRecord
100
AcDbBlockTableRecord
  2
*Paper_Space0
340
26
  0
ENDTAB
  0
ENDSEC
  0
SECTION
  2
BLOCKS
  0
BLOCK
  5
20
330
1F
100
AcDbEntity
  8
0
100
AcDbBlockBegin
  2
*Model_Space
 70
     0
 10
0.0
 20
0.0
 30
0.0
  3
*Model_Space
  1

  0
ENDBLK
  5
21
330
1F
100
AcDbEntity
  8
0
100
AcDbBlockEnd
  0
BLOCK
  5
1C
330
1B
100
AcDbEntity
 67
     1
  8
0
100
AcDbBlockBegin
  2
*Paper_Space
 70
     0
 10
0.0
 20
0.0
 30
0.0
  3
*Paper_Space
  1

  0
ENDBLK
  5
1D
330
1B
100
AcDbEntity
 67
     1
  8
0
100
AcDbBlockEnd
  0
BLOCK
  5
24
330
23
100
AcDbEntity
  8
0
100
AcDbBlockBegin
  2
*Paper_Space0
 70
     0
 10
0.0
 20
0.0
 30
0.0
  3
*Paper_Space0
  1

  0
ENDBLK
  5
25
330
23
100
AcDbEntity
  8
0
100
AcDbBlockEnd
  0
ENDSEC
  0
SECTION
  2
ENTITIES
  0
LWPOLYLINE
  5
65
330
1F
100
AcDbEntity
  8
0
  6
Continuous
 62
     7
370
    25
100
AcDbPolyline
 90
       17
 70
   128
 43
0.0
 10
149.1857745221
 20
36.5794403083
 10
148.4816667128
 20
36.6543997802
 10
147.8688071352
 20
36.9815977249
 10
147.4404981044
 20
37.5112212213
 10
147.2619457877
 20
38.1626398932
 10
147.3603331568
 20
38.836681153
 10
147.7206816266
 20
39.4307283289
 10
148.2881314091
 20
39.8543431236
 10
148.9762934189
 20
40.0430340246
 10
149.6804012282
 20
39.9680745528
 10
150.2932608058
 20
39.6408766081
 10
150.7215698366
 20
39.1112531116
 10
150.9001221533
 20
38.4598344397
 10
150.8017347842
 20
37.78579318
 10
150.4413863144
 20
37.191746004
 10
149.8739365319
 20
36.7681312093
 10
149.1857745221
 20
36.5794403083
  0
LWPOLYLINE
  5
66
330
1F
100
AcDbEntity
  8
0
  6
Continuous
 62
     7
370
    25
100
AcDbPolyline
 90
       17
 70
   128
 43
0.0
 10
103.7685801867
 20
-16.0066414634
 10
103.0644723774
 20
-15.9316819915
 10
102.4516127998
 20
-15.6044840469
 10
102.023303769
 20
-15.0748605504
 10
101.8447514524
 20
-14.4234418785
 10
101.9431388214
 20
-13.7494006187
 10
102.3034872912
 20
-13.1553534428
 10
102.8709370737
 20
-12.7317386481
 10
103.5590990835
 20
-12.5430477471
 10
104.2632068928
 20
-12.618007219
 10
104.8760664704
 20
-12.9452051636
 10
105.3043755012
 20
-13.4748286601
 10
105.4829278179
 20
-14.126247332
 10
105.3845404488
 20
-14.8002885918
 10
105.024191979
 20
-15.3943357677
 10
104.4567421965
 20
-15.8179505624
 10
103.7685801867
 20
-16.0066414634
  0
LWPOLYLINE
  5
67
330
1F
100
AcDbEntity
  8
0
  6
Continuous
 62
     7
370
    25
100
AcDbPolyline
 90
       17
 70
   128
 43
0.0
 10
98.0412971816
 20
78.6891622415
 10
97.3371893722
 20
78.7641217133
 10
96.7243297946
 20
79.091319658
 10
96.2960207638
 20
79.6209431545
 10
96.1174684472
 20
80.2723618264
 10
96.2158558163
 20
80.9464030861
 10
96.576204286
 20
81.5404502621
 10
97.1436540685
 20
81.9640650568
 10
97.8318160784
 20
82.1527559578
 10
98.5359238877
 20
82.0777964859
 10
99.1487834653
 20
81.7505985412
 10
99.5770924961
 20
81.2209750448
 10
99.7556448127
 20
80.5695563729
 10
99.6572574436
 20
79.8955151131
 10
99.2969089739
 20
79.3014679372
 10
98.7294591914
 20
78.8778531425
 10
98.0412971816
 20
78.6891622415
  0
LWPOLYLINE
  5
6C
330
1F
100
AcDbEntity
  8
0
  6
Continuous
 62
     7
370
    25
100
AcDbPolyline
 90
      133
 70
   128
 43
0.0
 10
81.0866804479
 20
-169.1770689137
 10
88.6608262732
 20
-165.546598623
 10
96.0770672773
 20
-161.6195899783
 10
103.3222755472
 20
-157.4029944023
 10
110.3836259251
 20
-152.9042759323
 10
117.2486187103
 20
-148.1313980074
 10
123.9051017861
 20
-143.0928093722
 10
130.3412921308
 20
-137.7974291208
 10
136.5457966752
 20
-132.2546309089
 10
142.5076324707
 20
-126.4742263611
 10
148.2162461304
 20
-120.4664477023
 10
153.6615325105
 20
-114.2419296455
 10
158.8338525977
 20
-107.8116905666
 10
163.7240505721
 20
-101.1871129997
 10
168.3234700145
 20
-94.3799234891
 10
172.6239692289
 20
-87.4021718304
 10
176.6179356557
 20
-80.2662097415
 10
180.2982993461
 20
-72.9846689974
 10
183.6585454777
 20
-65.5704390702
 10
186.6927258865
 20
-58.0366443128
 10
189.3954695959
 20
-50.3966207266
 10
191.7619923246
 20
-42.6638923548
 10
193.7881049552
 20
-34.8521473426
 10
195.4702209497
 20
-26.9752137071
 10
196.8053626984
 20
-19.0470348594
 10
197.7911667904
 20
-11.0816449229
 10
198.4258881974
 20
-3.0931438903
 10
198.7084033626
 20
4.9043273353
 10
198.63821219
 20
12.8966119723
 10
198.2154389288
 20
20.86956242
 10
197.4408319542
 20
28.8090653024
 10
196.3157624424
 20
36.7010664509
 10
194.8422219433
 20
44.5315957825
 10
193.0228188553
 20
52.2867920288
 10
190.860773808
 20
59.9529272729
 10
188.3599139611
 20
67.51643125
 10
185.5246662298
 20
74.9639153687
 10
182.3600494485
 20
82.2821964108
 10
178.8716654864
 20
89.4583198683
 10
175.0656893319
 20
96.479582874
 10
170.948858161
 20
103.3335566884
 10
166.5284594124
 20
110.0081087
 10
161.8123178871
 20
116.4914239022
 10
156.8087818971
 20
122.7720258075
 10
151.5267084879
 20
128.8387967629
 10
145.9754477601
 20
134.6809976299
 10
140.1648263181
 20
140.2882867941
 10
134.1051298756
 20
145.6507384721
 10
127.8070850482
 20
150.7588602811
 10
121.2818403657
 20
155.6036100421
 10
114.5409465372
 20
160.1764117864
 10
107.5963360049
 20
164.4691709357
 10
100.4603018214
 20
168.4742886313
 10
93.1454758893
 20
172.1846751851
 10
85.6648066009
 20
175.5937626293
 10
78.0315359172
 20
178.6955163432
 10
70.2591759275
 20
181.4844457348
 10
62.3614849314
 20
183.9556139607
 10
54.3524430838
 20
186.1046466644
 10
46.2462276482
 20
187.9277397202
 10
38.0571879006
 20
189.4216659666
 10
29.7998197292
 20
190.5837809192
 10
21.488739974
 20
191.4120274519
 10
13.1386605533
 20
191.9049394381
 10
4.7643624206
 20
192.0616443459
 10
-3.6193305995
 20
191.8818647831
 10
-11.997578052
 20
191.3659189878
 10
-20.3555491215
 20
190.5147202652
 10
-28.6784488847
 20
189.3297753709
 10
-36.9515445003
 20
187.8131818436
 10
-45.1601912882
 20
185.9676242923
 10
-53.2898586527
 20
183.7963696443
 10
-61.3261558041
 20
181.3032613616
 10
-69.2548572328
 20
178.4927126379
 10
-77.0619278904
 20
175.3696985865
 10
-84.7335480342
 20
171.9397474333
 10
-92.2561376902
 20
168.2089307313
 10
-99.6163806917
 20
164.1838526125
 10
-106.8012482512
 20
159.8716380984
 10
-113.7980220233
 20
155.2799204867
 10
-120.5943166181
 20
150.4168278396
 10
-127.1781015256
 20
145.2909685958
 10
-133.537722411
 20
139.9114163323
 10
-139.6619217454
 20
134.2876937024
 10
-145.5398587329
 20
128.4297555797
 10
-151.1611285006
 20
122.3479714356
 10
-156.5157805173
 20
116.0531069847
 10
-161.5943362067
 20
109.5563051267
 10
-166.3878057267
 20
102.8690662227
 10
-170.8877038824
 20
96.0032277371
 10
-175.0860651465
 20
88.9709432836
 10
-178.9754577594
 20
81.7846611116
 10
-182.5489968845
 20
74.4571020706
 10
-185.8003567956
 20
67.0012370923
 10
-188.7237820744
 20
59.4302642303
 10
-191.3140977985
 20
51.757585297
 10
-193.5667187016
 20
43.9967821407
 10
-195.4776572906
 20
36.1615926034
 10
-197.0435309036
 20
28.2658862026
 10
-198.2615676981
 20
20.3236395804
 10
-199.1296115574
 20
12.3489117621
 10
-199.6461259075
 20
4.3558192701
 10
-199.8101964366
 20
-3.641488865
 10
-199.6215327142
 20
-11.6288561503
 10
-199.0804687047
 20
-19.5921436895
 10
-198.1879621765
 20
-27.5172552115
 10
-196.9455930065
 20
-35.3901620228
 10
-195.3555603835
 20
-43.1969278401
 10
-193.4206789152
 20
-50.9237334604
 10
-191.1443736462
 20
-58.5569012226
 10
-188.5306739947
 20
-66.0829192195
 10
-185.5842066201
 20
-73.4884652158
 10
-182.3101872329
 20
-80.7604302304
 10
-178.7144113625
 20
-87.8859417419
 10
-174.8032440974
 20
-94.8523864743
 10
-170.5836088188
 20
-101.6474327249
 10
-166.0629749447
 20
-108.2590521934
 10
-161.2493447079
 20
-114.6755412736
 10
-156.1512389908
 20
-120.8855417708
 10
-150.7776822424
 20
-126.8780610076
 10
-145.138186503
 20
-132.6424912826
 10
-139.2427345669
 20
-138.1686286479
 10
-133.1017623112
 20
-143.4466909711
 10
-126.7261402223
 20
-148.4673352521
 10
-120.127154154
 20
-153.221674161
 10
-113.3164853493
 20
-157.7012917702
 10
-106.306189763
 20
-161.8982584522
 10
-99.1086767207
 20
-165.8051449159
 10
-91.7366869522
 20
-169.415035358
 10
-84.2032700387
 20
-172.7215397046
 10
-76.5217613129
 20
-175.7188049233
 10
-68.705758253
 20
-178.4015253831
 10
-60.7690964136
 20
-180.764952247
  0
LWPOLYLINE
  5
EE
330
1F
100
AcDbEntity
  8
0
  6
Continuous
 62
     7
370
    25
100
AcDbPolyline
 90
       17
 70
   128
 43
0.0
 10
-152.9649045293
 20
11.8974224492
 10
-152.2767425195
 20
12.0861133502
 10
-151.709292737
 20
12.5097281449
 10
-151.3489442672
 20
13.1037753209
 10
-151.2505568981
 20
13.7778165806
 10
-151.4291092148
 20
14.4292352525
 10
-151.8574182456
 20
14.958858749
 10
-152.4702778232
 20
15.2860566937
 10
-153.1743856325
 20
15.3610161655
 10
-153.8625476423
 20
15.1723252645
 10
-154.4299974248
 20
14.7487104698
 10
-154.7903458946
 20
14.1546632939
 10
-154.8887332637
 20
13.4806220341
 10
-154.710180947
 20
12.8292033622
 10
-154.2818719162
 20
12.2995798658
 10
-153.6690123386
 20
11.9723819211
 10
-152.9649045293
 20
11.8974224492
  0
LWPOLYLINE
  5
EF
330
1F
100
AcDbEntity
  8
0
  6
Continuous
 62
     7
370
    25
100
AcDbPolyline
 90
       17
 70
   128
 43
0.0
 10
-150.1012630267
 20
-35.4504794032
 10
-149.4131010169
 20
-35.2617885022
 10
-148.8456512344
 20
-34.8381737075
 10
-148.4853027646
 20
-34.2441265316
 10
-148.3869153956
 20
-33.5700852718
 10
-148.5654677122
 20
-32.9186665999
 10
-148.993776743
 20
-32.3890431034
 10
-149.6066363206
 20
-32.0618451588
 10
-150.3107441299
 20
-31.9868856869
 10
-150.9989061397
 20
-32.1755765879
 10
-151.5663559222
 20
-32.5991913826
 10
-151.926704392
 20
-33.1932385586
 10
-152.0250917611
 20
-33.8672798183
 10
-151.8465394444
 20
-34.5186984902
 10
-151.4182304136
 20
-35.0483219867
 10
-150.805370836
 20
-35.3755199313
 10
-150.1012630267
 20
-35.4504794032
  0
LWPOLYLINE
  5
F0
330
1F
100
AcDbEntity
  8
0
  6
Continuous
 62
     7
370
    25
100
AcDbPolyline
 90
       17
 70
   128
 43
0.0
 10
-101.664645091
 20
-32.7880253447
 10
-100.9764830812
 20
-32.5993344437
 10
-100.4090332987
 20
-32.175719649
 10
-100.0486848289
 20
-31.5816724731
 10
-99.9502974598
 20
-30.9076312133
 10
-100.1288497765
 20
-30.2562125414
 10
-100.5571588073
 20
-29.7265890449
 10
-101.1700183849
 20
-29.3993911003
 10
-101.8741261942
 20
-29.3244316284
 10
-102.562288204
 20
-29.5131225294
 10
-103.1297379865
 20
-29.9367373241
 10
-103.4900864563
 20
-30.5307845
 10
-103.5884738254
 20
-31.2048257598
 10
-103.4099215087
 20
-31.8562444317
 10
-102.9816124779
 20
-32.3858679282
 10
-102.3687529003
 20
-32.7130658728
 10
-101.664645091
 20
-32.7880253447
  0
LWPOLYLINE
  5
F1
330
1F
100
AcDbEntity
  8
0
  6
Continuous
 62
     7
370
    25
100
AcDbPolyline
 90
       17
 70
   128
 43
0.0
 10
-104.5282865936
 20
14.5598765077
 10
-103.8401245838
 20
14.7485674087
 10
-103.2726748013
 20
15.1721822034
 10
-102.9123263315
 20
15.7662293794
 10
-102.8139389624
 20
16.4402706391
 10
-102.9924912791
 20
17.0916893111
 10
-103.4208003099
 20
17.6213128075
 10
-104.0336598875
 20
17.9485107522
 10
-104.7377676968
 20
18.023470224
 10
-105.4259297066
 20
17.834779323
 10
-105.9933794891
 20
17.4111645284
 10
-106.3537279589
 20
16.8171173524
 10
-106.452115328
 20
16.1430760926
 10
-106.2735630113
 20
15.4916574207
 10
-105.8452539805
 20
14.9620339243
 10
-105.2323944029
 20
14.6348359796
 10
-104.5282865936
 20
14.5598765077
  0
LWPOLYLINE
  5
F2
330
1F
100
AcDbEntity
  8
0
  6
Continuous
 62
     7
370
    25
100
AcDbPolyline
 90
       17
 70
   128
 43
0.0
 10
-107.3919280962
 20
61.9077783602
 10
-106.7037660864
 20
62.0964692612
 10
-106.1363163039
 20
62.5200840559
 10
-105.7759678341
 20
63.1141312318
 10
-105.677580465
 20
63.7881724916
 10
-105.8561327817
 20
64.4395911635
 10
-106.2844418125
 20
64.9692146599
 10
-106.8973013901
 20
65.2964126046
 10
-107.6014091994
 20
65.3713720765
 10
-108.2895712092
 20
65.1826811755
 10
-108.8570209917
 20
64.7590663808
 10
-109.2173694615
 20
64.1650192048
 10
-109.3157568306
 20
63.4909779451
 10
-109.1372045139
 20
62.8395592732
 10
-108.7088954831
 20
62.3099357767
 10
-108.0960359055
 20
61.982737832
 10
-107.3919280962
 20
61.9077783602
  0
LWPOLYLINE
  5
F3
330
1F
100
AcDbEntity
  8
0
  6
Continuous
 62
     7
370
    25
100
AcDbPolyline
 90
       17
 70
   128
 43
0.0
 10
-98.8010035884
 20
-80.1359271971
 10
-98.1128415786
 20
-79.9472362961
 10
-97.5453917961
 20
-79.5236215014
 10
-97.1850433263
 20
-78.9295743255
 10
-97.0866559573
 20
-78.2555330657
 10
-97.2652082739
 20
-77.6041143938
 10
-97.6935173047
 20
-77.0744908974
 10
-98.3063768823
 20
-76.7472929527
 10
-99.0104846916
 20
-76.6723334808
 10
-99.6986467014
 20
-76.8610243818
 10
-100.2660964839
 20
-77.2846391765
 10
-100.6264449537
 20
-77.8786863525
 10
-100.7248323228
 20
-78.5527276122
 10
-100.5462800061
 20
-79.2041462842
 10
-100.1179709753
 20
-79.7337697806
 10
-99.5051113977
 20
-80.0609677253
 10
-98.8010035884
 20
-80.1359271971
  0
LWPOLYLINE
  5
F4
330
1F
100
AcDbEntity
  8
0
  6
Continuous
 62
     7
370
    25
100
AcDbPolyline
 90
       17
 70
   128
 43
0.0
 10
106.6322216893
 20
-63.3545433158
 10
105.92811388
 20
-63.279583844
 10
105.3152543024
 20
-62.9523858993
 10
104.8869452716
 20
-62.4227624029
 10
104.7083929549
 20
-61.7713437309
 10
104.806780324
 20
-61.0973024712
 10
105.1671287938
 20
-60.5032552952
 10
105.7345785763
 20
-60.0796405005
 10
106.4227405861
 20
-59.8909495995
 10
107.1268483954
 20
-59.9659090714
 10
107.739707973
 20
-60.2931070161
 10
108.1680170038
 20
-60.8227305125
 10
108.3465693205
 20
-61.4741491844
 10
108.2481819514
 20
-62.1481904442
 10
107.8878334816
 20
-62.7422376201
 10
107.3203836991
 20
-63.1658524148
 10
106.6322216893
 20
-63.3545433158
  0
LWPOLYLINE
  5
F5
330
1F
100
AcDbEntity
  8
0
  6
Continuous
 62
     7
370
    25
100
AcDbPolyline
 90
       17
 70
   128
 43
0.0
 10
100.9049386841
 20
31.341260389
 10
100.2008308748
 20
31.4162198609
 10
99.5879712972
 20
31.7434178056
 10
99.1596622664
 20
32.273041302
 10
98.9811099498
 20
32.9244599739
 10
99.0794973189
 20
33.5985012337
 10
99.4398457886
 20
34.1925484097
 10
100.0072955711
 20
34.6161632043
 10
100.6954575809
 20
34.8048541053
 10
101.3995653903
 20
34.7298946335
 10
102.0124249679
 20
34.4026966888
 10
102.4407339986
 20
33.8730731924
 10
102.6192863153
 20
33.2216545204
 10
102.5208989462
 20
32.5476132607
 10
102.1605504765
 20
31.9535660847
 10
101.5931006939
 20
31.52995129
 10
100.9049386841
 20
31.341260389
  0
LWPOLYLINE
  5
F6
330
1F
100
AcDbEntity
  8
0
  6
Continuous
 62
     7
370
    25
100
AcDbPolyline
 90
       17
 70
   128
 43
0.0
 10
152.0494160247
 20
-10.7684615441
 10
151.3453082154
 20
-10.6935020722
 10
150.7324486378
 20
-10.3663041276
 10
150.304139607
 20
-9.8366806311
 10
150.1255872903
 20
-9.1852619592
 10
150.2239746594
 20
-8.5112206995
 10
150.5843231292
 20
-7.9171735235
 10
151.1517729117
 20
-7.4935587288
 10
151.8399349215
 20
-7.3048678278
 10
152.5440427308
 20
-7.3798272997
 10
153.1569023084
 20
-7.7070252444
 10
153.5852113392
 20
-8.2366487408
 10
153.7637636559
 20
-8.8880674127
 10
153.6653762868
 20
-9.5621086725
 10
153.305027817
 20
-10.1561558484
 10
152.7375780345
 20
-10.5797706431
 10
152.0494160247
 20
-10.7684615441
  0
LWPOLYLINE
  5
F7
330
1F
100
AcDbEntity
  8
0
  6
Continuous
 62
     7
370
    25
100
AcDbPolyline
 90
       40
 70
   128
 43
0.0
 10
-21.7691297153
 20
-60.2598950537
 10
-19.6131787474
 20
-59.9164894677
 10
-17.5332020663
 20
-59.2490413149
 10
-15.5830699754
 20
-58.2748371516
 10
-13.8132898715
 20
-57.019108354
 10
-12.2696981296
 20
-55.5143776385
 10
-10.9922729651
 20
-53.79961674
 10
-10.0140990187
 20
-51.9192370652
 10
-9.3605104818
 20
-49.9219394599
 10
-9.0484349542
 20
-47.8594528829
 10
-9.0859550282
 20
-45.7851946533
 10
-9.4720989535
 20
-43.7528869696
 10
-10.1968658053
 20
-41.8151655333
 10
-11.2414845028
 20
-40.0222163117
 10
-12.5788999706
 20
-38.420475748
 10
-14.1744738504
 20
-37.0514280813
 10
-15.986881617
 20
-35.9505309271
 10
-17.9691828611
 20
-35.1462969434
 10
-20.0700370219
 20
-34.659555368
 10
-22.23503308
 20
-34.502912552
 10
-24.4080987748
 20
-34.6804254619
 10
-26.5329528463
 20
-35.1874966068
 10
-28.5545626901
 20
-36.0109931103
 10
-30.4205696732
 20
-37.1295868455
 10
-32.0826451949
 20
-38.5143068223
 10
-33.4977423722
 20
-40.1292895205
 10
-34.6292109315
 20
-41.9327077368
 10
-35.4477464316
 20
-43.8778538864
 10
-35.9321492329
 20
-45.914349706
 10
-36.0698735572
 20
-47.9894510234
 10
-35.857352417
 20
-50.0494138047
 10
-35.3000899981
 20
-52.0408860957
 10
-34.4125191045
 20
-53.9122898102
 10
-33.2176273561
 20
-55.615156575
 10
-31.7463618216
 20
-57.1053830355
 10
-30.0368275053
 20
-58.3443731089
 10
-28.1333004483
 20
-59.3000376034
 10
-26.0850810013
 20
-59.9476253103
 10
-23.9452169722
 20
-60.2703640483
 10
-21.7691297153
 20
-60.2598950537
  0
LWPOLYLINE
  5
F8
330
1F
100
AcDbEntity
  8
0
  6
Continuous
 62
     7
370
    25
100
AcDbPolyline
 90
       40
 70
   128
 43
0.0
 10
-24.6327712178
 20
-12.9119932012
 10
-22.47682025
 20
-12.5685876153
 10
-20.3968435689
 20
-11.9011394624
 10
-18.446711478
 20
-10.9269352992
 10
-16.6769313741
 20
-9.6712065016
 10
-15.1333396322
 20
-8.166475786
 10
-13.8559144677
 20
-6.4517148876
 10
-12.8777405213
 20
-4.5713352127
 10
-12.2241519844
 20
-2.5740376074
 10
-11.9120764568
 20
-0.5115510305
 10
-11.9495965307
 20
1.5627071991
 10
-12.335740456
 20
3.5950148829
 10
-13.0605073079
 20
5.5327363192
 10
-14.1051260054
 20
7.3256855407
 10
-15.4425414732
 20
8.9274261044
 10
-17.038115353
 20
10.2964737711
 10
-18.8505231196
 20
11.3973709253
 10
-20.8328243637
 20
12.201604909
 10
-22.9336785245
 20
12.6883464844
 10
-25.0986745826
 20
12.8449893005
 10
-27.2717402774
 20
12.6674763905
 10
-29.3965943489
 20
12.1604052456
 10
-31.4182041927
 20
11.3369087422
 10
-33.2842111758
 20
10.2183150069
 10
-34.9462866975
 20
8.8335950302
 10
-36.3613838748
 20
7.2186123319
 10
-37.4928524341
 20
5.4151941157
 10
-38.3113879342
 20
3.470047966
 10
-38.7957907355
 20
1.4335521464
 10
-38.9335150598
 20
-0.641549171
 10
-38.7209939196
 20
-2.7015119522
 10
-38.1637315007
 20
-4.6929842432
 10
-37.2761606071
 20
-6.5643879578
 10
-36.0812688587
 20
-8.2672547226
 10
-34.6100033241
 20
-9.757481183
 10
-32.9004690079
 20
-10.9964712565
 10
-30.9969419509
 20
-11.9521357509
 10
-28.9487225039
 20
-12.5997234579
 10
-26.8088584748
 20
-12.9224621959
 10
-24.6327712178
 20
-12.9119932012
  0
LWPOLYLINE
  5
F9
330
1F
100
AcDbEntity
  8
0
  6
Continuous
 62
     7
370
    25
100
AcDbPolyline
 90
       40
 70
   128
 43
0.0
 10
25.1017044704
 20
-8.8492943484
 10
27.2576554382
 20
-8.5058887625
 10
29.3376321193
 20
-7.8384406096
 10
31.2877642102
 20
-6.8642364464
 10
33.0575443141
 20
-5.6085076488
 10
34.601136056
 20
-4.1037769333
 10
35.8785612205
 20
-2.3890160348
 10
36.856735167
 20
-0.50863636
 10
37.5103237038
 20
1.4886612453
 10
37.8223992314
 20
3.5511478223
 10
37.7848791575
 20
5.6254060519
 10
37.3987352322
 20
7.6577137356
 10
36.6739683804
 20
9.5954351719
 10
35.6293496828
 20
11.3883843935
 10
34.291934215
 20
12.9901249572
 10
32.6963603352
 20
14.3591726239
 10
30.8839525686
 20
15.4600697781
 10
28.9016513245
 20
16.2643037618
 10
26.8007971638
 20
16.7510453372
 10
24.6358011056
 20
16.9076881533
 10
22.4627354108
 20
16.7301752433
 10
20.3378813393
 20
16.2231040984
 10
18.3162714955
 20
15.3996075949
 10
16.4502645124
 20
14.2810138597
 10
14.7881889908
 20
12.896293883
 10
13.3730918134
 20
11.2813111847
 10
12.2416232541
 20
9.4778929684
 10
11.423087754
 20
7.5327468188
 10
10.9386849528
 20
5.4962509992
 10
10.8009606284
 20
3.4211496818
 10
11.0134817686
 20
1.3611869006
 10
11.5707441875
 20
-0.6302853905
 10
12.4583150811
 20
-2.501689105
 10
13.6532068295
 20
-4.2045558698
 10
15.1244723641
 20
-5.6947823303
 10
16.8340066803
 20
-6.9337724037
 10
18.7375337373
 20
-7.8894368981
 10
20.7857531843
 20
-8.5370246051
 10
22.9256172135
 20
-8.8597633431
 10
25.1017044704
 20
-8.8492943484
  0
LWPOLYLINE
  5
FA
330
1F
100
AcDbEntity
  8
0
  6
Continuous
 62
     7
370
    25
100
AcDbPolyline
 90
       40
 70
   128
 43
0.0
 10
27.965345973
 20
-56.1971962009
 10
30.1212969408
 20
-55.8537906149
 10
32.2012736219
 20
-55.1863424621
 10
34.1514057128
 20
-54.2121382988
 10
35.9211858167
 20
-52.9564095013
 10
37.4647775586
 20
-51.4516787857
 10
38.7422027231
 20
-49.7369178872
 10
39.7203766695
 20
-47.8565382124
 10
40.3739652064
 20
-45.8592406071
 10
40.686040734
 20
-43.7967540301
 10
40.6485206601
 20
-41.7224958005
 10
40.2623767348
 20
-39.6901881168
 10
39.5376098829
 20
-37.7524666805
 10
38.4929911854
 20
-35.9595174589
 10
37.1555757176
 20
-34.3577768952
 10
35.5600018378
 20
-32.9887292285
 10
33.7475940712
 20
-31.8878320743
 10
31.7652928271
 20
-31.0835980907
 10
29.6644386663
 20
-30.5968565152
 10
27.4994426082
 20
-30.4402136992
 10
25.3263769134
 20
-30.6177266091
 10
23.2015228419
 20
-31.124797754
 10
21.1799129981
 20
-31.9482942575
 10
19.313906015
 20
-33.0668879927
 10
17.6518304933
 20
-34.4516079695
 10
16.236733316
 20
-36.0665906678
 10
15.1052647567
 20
-37.870008884
 10
14.2867292566
 20
-39.8151550336
 10
13.8023264554
 20
-41.8516508532
 10
13.664602131
 20
-43.9267521707
 10
13.8771232712
 20
-45.9867149519
 10
14.4343856901
 20
-47.9781872429
 10
15.3219565837
 20
-49.8495909574
 10
16.5168483321
 20
-51.5524577223
 10
17.9881138667
 20
-53.0426841827
 10
19.6976481829
 20
-54.2816742562
 10
21.6011752399
 20
-55.2373387506
 10
23.6493946869
 20
-55.8849264575
 10
25.789258716
 20
-56.2076651956
 10
27.965345973
 20
-56.1971962009
  0
LWPOLYLINE
  5
FB
330
1F
100
AcDbEntity
  8
0
  6
Continuous
 62
     7
370
    25
100
AcDbPolyline
 90
       40
 70
   128
 43
0.0
 10
22.2380629678
 20
38.498607504
 10
24.3940139356
 20
38.8420130899
 10
26.4739906167
 20
39.5094612428
 10
28.4241227076
 20
40.4836654061
 10
30.1939028115
 20
41.7393942036
 10
31.7374945534
 20
43.2441249192
 10
33.014919718
 20
44.9588858177
 10
33.9930936644
 20
46.8392654925
 10
34.6466822013
 20
48.8365630978
 10
34.9587577288
 20
50.8990496747
 10
34.9212376549
 20
52.9733079044
 10
34.5350937296
 20
55.0056155881
 10
33.8103268778
 20
56.9433370244
 10
32.7657081802
 20
58.7362862459
 10
31.4282927125
 20
60.3380268097
 10
29.8327188326
 20
61.7070744763
 10
28.0203110661
 20
62.8079716305
 10
26.0380098219
 20
63.6122056142
 10
23.9371556612
 20
64.0989471896
 10
21.772159603
 20
64.2555900057
 10
19.5990939082
 20
64.0780770957
 10
17.4742398368
 20
63.5710059508
 10
15.4526299929
 20
62.7475094474
 10
13.5866230099
 20
61.6289157122
 10
11.9245474882
 20
60.2441957354
 10
10.5094503109
 20
58.6292130371
 10
9.3779817515
 20
56.8257948209
 10
8.5594462514
 20
54.8806486712
 10
8.0750434502
 20
52.8441528517
 10
7.9373191258
 20
50.7690515342
 10
8.149840266
 20
48.709088753
 10
8.7071026849
 20
46.717616462
 10
9.5946735785
 20
44.8462127475
 10
10.7895653269
 20
43.1433459826
 10
12.2608308615
 20
41.6531195222
 10
13.9703651777
 20
40.4141294487
 10
15.8738922348
 20
39.4584649543
 10
17.9221116817
 20
38.8108772473
 10
20.0619757109
 20
38.4881385093
 10
22.2380629678
 20
38.498607504
  0
LWPOLYLINE
  5
FC
330
1F
100
AcDbEntity
  8
0
  6
Continuous
 62
     7
370
    25
100
AcDbPolyline
 90
       40
 70
   128
 43
0.0
 10
-27.4964127204
 20
34.4359086512
 10
-25.3404617526
 20
34.7793142371
 10
-23.2604850715
 20
35.44676239
 10
-21.3103529806
 20
36.4209665533
 10
-19.5405728767
 20
37.6766953508
 10
-17.9969811348
 20
39.1814260664
 10
-16.7195559703
 20
40.8961869649
 10
-15.7413820238
 20
42.7765666397
 10
-15.087793487
 20
44.773864245
 10
-14.7757179594
 20
46.836350822
 10
-14.8132380333
 20
48.9106090516
 10
-15.1993819586
 20
50.9429167353
 10
-15.9241488104
 20
52.8806381716
 10
-16.968767508
 20
54.6735873931
 10
-18.3061829758
 20
56.2753279569
 10
-19.9017568556
 20
57.6443756236
 10
-21.7141646222
 20
58.7452727777
 10
-23.6964658663
 20
59.5495067614
 10
-25.7973200271
 20
60.0362483369
 10
-27.9623160852
 20
60.1928911529
 10
-30.13538178
 20
60.0153782429
 10
-32.2602358515
 20
59.5083070981
 10
-34.2818456953
 20
58.6848105946
 10
-36.1478526784
 20
57.5662168594
 10
-37.8099282
 20
56.1814968826
 10
-39.2250253774
 20
54.5665141843
 10
-40.3564939367
 20
52.7630959681
 10
-41.1750294368
 20
50.8179498184
 10
-41.659432238
 20
48.7814539989
 10
-41.7971565624
 20
46.7063526814
 10
-41.5846354222
 20
44.6463899002
 10
-41.0273730033
 20
42.6549176092
 10
-40.1398021097
 20
40.7835138947
 10
-38.9449103613
 20
39.0806471298
 10
-37.4736448267
 20
37.5904206694
 10
-35.7641105105
 20
36.3514305959
 10
-33.8605834535
 20
35.3957661015
 10
-31.8123640065
 20
34.7481783946
 10
-29.6724999774
 20
34.4254396565
 10
-27.4964127204
 20
34.4359086512
  0
LWPOLYLINE
  5
FD
330
1F
100
AcDbEntity
  8
0
  6
Continuous
 62
     7
370
    25
100
AcDbPolyline
 90
       40
 70
   128
 43
0.0
 10
-30.360054223
 20
81.7838105037
 10
-28.2041032552
 20
82.1272160896
 10
-26.1241265741
 20
82.7946642425
 10
-24.1739944832
 20
83.7688684057
 10
-22.4042143793
 20
85.0245972033
 10
-20.8606226374
 20
86.5293279188
 10
-19.5831974728
 20
88.2440888173
 10
-18.6050235264
 20
90.1244684921
 10
-17.9514349895
 20
92.1217660974
 10
-17.639359462
 20
94.1842526744
 10
-17.6768795359
 20
96.258510904
 10
-18.0630234612
 20
98.2908185877
 10
-18.787790313
 20
100.228540024
 10
-19.8324090106
 20
102.0214892456
 10
-21.1698244783
 20
103.6232298093
 10
-22.7653983582
 20
104.992277476
 10
-24.5778061247
 20
106.0931746302
 10
-26.5601073689
 20
106.8974086139
 10
-28.6609615296
 20
107.3841501893
 10
-30.8259575878
 20
107.5407930054
 10
-32.9990232826
 20
107.3632800954
 10
-35.1238773541
 20
106.8562089505
 10
-37.1454871979
 20
106.032712447
 10
-39.011494181
 20
104.9141187118
 10
-40.6735697026
 20
103.529398735
 10
-42.0886668799
 20
101.9144160368
 10
-43.2201354393
 20
100.1109978205
 10
-44.0386709394
 20
98.1658516709
 10
-44.5230737406
 20
96.1293558513
 10
-44.660798065
 20
94.0542545339
 10
-44.4482769248
 20
91.9942917526
 10
-43.8910145059
 20
90.0028194616
 10
-43.0034436123
 20
88.1314157471
 10
-41.8085518639
 20
86.4285489823
 10
-40.3372863293
 20
84.9383225218
 10
-38.6277520131
 20
83.6993324484
 10
-36.724224956
 20
82.7436679539
 10
-34.6760055091
 20
82.096080247
 10
-32.5361414799
 20
81.773341509
 10
-30.360054223
 20
81.7838105037
  0
LWPOLYLINE
  5
FE
330
1F
100
AcDbEntity
  8
0
  6
Continuous
 62
     7
370
    25
100
AcDbPolyline
 90
       40
 70
   128
 43
0.0
 10
19.3744214652
 20
85.8465093564
 10
21.530372433
 20
86.1899149424
 10
23.6103491141
 20
86.8573630952
 10
25.560481205
 20
87.8315672585
 10
27.330261309
 20
89.087296056
 10
28.8738530508
 20
90.5920267716
 10
30.1512782154
 20
92.3067876701
 10
31.1294521618
 20
94.1871673449
 10
31.7830406987
 20
96.1844649502
 10
32.0951162263
 20
98.2469515272
 10
32.0575961523
 20
100.3212097568
 10
31.671452227
 20
102.3535174405
 10
30.9466853752
 20
104.2912388768
 10
29.9020666776
 20
106.0841880984
 10
28.5646512099
 20
107.6859286621
 10
26.96907733
 20
109.0549763288
 10
25.1566695635
 20
110.155873483
 10
23.1743683193
 20
110.9601074666
 10
21.0735141586
 20
111.4468490421
 10
18.9085181004
 20
111.6034918581
 10
16.7354524056
 20
111.4259789482
 10
14.6105983342
 20
110.9189078033
 10
12.5889884904
 20
110.0954112998
 10
10.7229815073
 20
108.9768175646
 10
9.0609059856
 20
107.5920975878
 10
7.6458088083
 20
105.9771148895
 10
6.5143402489
 20
104.1736966733
 10
5.6958047488
 20
102.2285505237
 10
5.2114019476
 20
100.1920547041
 10
5.0736776232
 20
98.1169533866
 10
5.2861987634
 20
96.0569906054
 10
5.8434611823
 20
94.0655183144
 10
6.7310320759
 20
92.1941145999
 10
7.9259238243
 20
90.491247835
 10
9.3971893589
 20
89.0010213746
 10
11.1067236751
 20
87.7620313011
 10
13.0102507322
 20
86.8063668067
 10
15.0584701792
 20
86.1587790998
 10
17.1983342083
 20
85.8360403618
 10
19.3744214652
 20
85.8465093564
  0
LWPOLYLINE
  5
101
330
1F
100
AcDbEntity
  8
0
  6
Continuous
 62
     7
370
    25
100
AcDbPolyline
 90
       35
 70
   128
 43
0.0
 10
81.6296924896
 20
-171.1513804919
 10
89.2038383149
 20
-167.5209102012
 10
96.6200793189
 20
-163.5939015564
 10
103.8652875889
 20
-159.3773059804
 10
110.9266379668
 20
-154.8785875104
 10
117.791630752
 20
-150.1057095855
 10
124.4481138278
 20
-145.0671209503
 10
130.8843041724
 20
-139.7717406989
 10
137.0888087169
 20
-134.228942487
 10
143.0506445124
 20
-128.4485379392
 10
148.7592581721
 20
-122.4407592804
 10
154.2045445521
 20
-116.2162412237
 10
159.3768646394
 20
-109.7860021447
 10
164.2670626138
 20
-103.1614245779
 10
168.8664820562
 20
-96.3542350672
 10
173.1669812706
 20
-89.3764834085
 10
177.1609476974
 20
-82.2405213196
 10
180.8413113878
 20
-74.9589805755
 10
184.2015575194
 20
-67.5447506483
 10
187.2357379282
 20
-60.0109558909
 10
189.9384816376
 20
-52.3709323047
 10
192.3050043663
 20
-44.6382039329
 10
194.3311169969
 20
-36.8264589207
 10
196.0132329914
 20
-28.9495252852
 10
197.3483747401
 20
-21.0213464375
 10
198.3341788321
 20
-13.055956501
 10
198.968900239
 20
-5.0674554684
 10
199.2514154043
 20
2.9300157572
 10
199.1812242317
 20
10.9223003942
 10
198.7584509705
 20
18.8952508419
 10
197.9838439959
 20
26.8347537243
 10
196.858774484
 20
34.7267548728
 10
195.3852339849
 20
42.5572842044
 10
193.565830897
 20
50.3124804507
 10
192.83917164
 20
53.038230374
  0
LWPOLYLINE
  5
102
330
1F
100
AcDbEntity
  8
0
  6
Continuous
 62
     7
370
    25
100
AcDbPolyline
 90
       25
 70
   128
 43
0.0
 10
-192.83917164
 20
-53.038230374
 10
-190.6013616045
 20
-60.5312128007
 10
-187.987661953
 20
-68.0572307976
 10
-185.0411945784
 20
-75.4627767939
 10
-181.7671751913
 20
-82.7347418085
 10
-178.1713993208
 20
-89.86025332
 10
-174.2602320557
 20
-96.8266980524
 10
-170.0405967771
 20
-103.621744303
 10
-165.519962903
 20
-110.2333637715
 10
-160.7063326662
 20
-116.6498528517
 10
-155.6082269492
 20
-122.8598533489
 10
-150.2346702007
 20
-128.8523725857
 10
-144.5951744613
 20
-134.6168028608
 10
-138.6997225252
 20
-140.142940226
 10
-132.5587502695
 20
-145.4210025492
 10
-126.1831281806
 20
-150.4416468302
 10
-119.5841421123
 20
-155.1959857391
 10
-112.7734733076
 20
-159.6756033483
 10
-105.7631777213
 20
-163.8725700303
 10
-98.565664679
 20
-167.779456494
 10
-91.1936749105
 20
-171.3893469361
 10
-83.660257997
 20
-174.6958512827
 10
-75.9787492712
 20
-177.6931165014
 10
-68.1627462113
 20
-180.3758369612
 10
-60.2260843719
 20
-182.7392638251
  0
LWPOLYLINE
  5
127
330
1F
100
AcDbEntity
  8
0
  6
Continuous
 62
     7
370
    25
100
AcDbPolyline
 90
       20
 70
   128
 43
0.0
 10
40.506720934
 20
-40.7408714306
 10
40.0806219246
 20
-39.7267782586
 10
39.0360032271
 20
-37.9338290371
 10
37.6985877593
 20
-36.3320884733
 10
36.1030138795
 20
-34.9630408066
 10
34.2906061129
 20
-33.8621436524
 10
32.3083048688
 20
-33.0579096688
 10
30.207450708
 20
-32.5711680933
 10
28.0424546499
 20
-32.4145252773
 10
25.8693889551
 20
-32.5920381873
 10
23.7445348836
 20
-33.0991093321
 10
21.7229250398
 20
-33.9226058356
 10
19.8569180567
 20
-35.0411995708
 10
18.194842535
 20
-36.4259195476
 10
16.7797453577
 20
-38.0409022459
 10
15.6482767984
 20
-39.8443204621
 10
14.8297412983
 20
-41.7894666118
 10
14.345338497
 20
-43.8259624313
 10
14.2076141727
 20
-45.9010637488
 10
14.4120257177
 20
-47.9179218434
  0
LWPOLYLINE
  5
12C
330
1F
100
AcDbEntity
  8
0
  6
Continuous
 62
     7
370
    25
100
AcDbPolyline
 90
       20
 70
   128
 43
0.0
 10
-9.2277547542
 20
-44.8035702834
 10
-9.6538537636
 20
-43.7894771114
 10
-10.6984724611
 20
-41.9965278898
 10
-12.0358879289
 20
-40.3947873261
 10
-13.6314618087
 20
-39.0257396594
 10
-15.4438695753
 20
-37.9248425052
 10
-17.4261708194
 20
-37.1206085216
 10
-19.5270249802
 20
-36.6338669461
 10
-21.6920210383
 20
-36.4772241301
 10
-23.8650867331
 20
-36.65473704
 10
-25.9899408046
 20
-37.1618081849
 10
-28.0115506484
 20
-37.9853046884
 10
-29.8775576315
 20
-39.1038984236
 10
-31.5396331532
 20
-40.4886184004
 10
-32.9547303305
 20
-42.1036010986
 10
-34.0861988899
 20
-43.9070193149
 10
-34.9047343899
 20
-45.8521654645
 10
-35.3891371912
 20
-47.8886612841
 10
-35.5268615155
 20
-49.9637626015
 10
-35.3224499705
 20
-51.9806206962
  0
LWPOLYLINE
  5
13B
330
1F
100
AcDbEntity
  8
0
  6
Continuous
 62
     7
370
    25
100
AcDbPolyline
 90
       20
 70
   128
 43
0.0
 10
37.6430794314
 20
6.6070304218
 10
37.216980422
 20
7.6211235938
 10
36.1723617245
 20
9.4140728154
 10
34.8349462567
 20
11.0158133791
 10
33.2393723769
 20
12.3848610458
 10
31.4269646103
 20
13.4857582
 10
29.4446633662
 20
14.2899921837
 10
27.3438092054
 20
14.7767337591
 10
25.1788131473
 20
14.9333765752
 10
23.0057474525
 20
14.7558636652
 10
20.880893381
 20
14.2487925203
 10
18.8592835372
 20
13.4252960168
 10
16.9932765541
 20
12.3067022816
 10
15.3312010324
 20
10.9219823048
 10
13.9161038551
 20
9.3069996066
 10
12.7846352958
 20
7.5035813903
 10
11.9660997957
 20
5.5584352407
 10
11.4816969945
 20
3.5219394211
 10
11.3439726701
 20
1.4468381037
 10
11.5483842151
 20
-0.570019991
  0
LWPOLYLINE
  5
13E
330
1F
100
AcDbEntity
  8
0
  6
Continuous
 62
     7
370
    25
100
AcDbPolyline
 90
       20
 70
   128
 43
0.0
 10
-12.0913962568
 20
2.5443315691
 10
-12.5174952662
 20
3.5584247411
 10
-13.5621139637
 20
5.3513739626
 10
-14.8995294315
 20
6.9531145263
 10
-16.4951033113
 20
8.322162193
 10
-18.3075110779
 20
9.4230593472
 10
-20.289812322
 20
10.2272933309
 10
-22.3906664828
 20
10.7140349063
 10
-24.5556625409
 20
10.8706777224
 10
-26.7287282357
 20
10.6931648124
 10
-28.8535823072
 20
10.1860936675
 10
-30.875192151
 20
9.362597164
 10
-32.7411991341
 20
8.2440034288
 10
-34.4032746558
 20
6.8592834521
 10
-35.8183718331
 20
5.2443007538
 10
-36.9498403924
 20
3.4408825376
 10
-37.7683758925
 20
1.4957363879
 10
-38.2527786938
 20
-0.5407594317
 10
-38.3905030181
 20
-2.6158607491
 10
-38.1860914731
 20
-4.6327188437
  0
LWPOLYLINE
  5
153
330
1F
100
AcDbEntity
  8
0
  6
Continuous
 62
     7
370
    25
100
AcDbPolyline
 90
       20
 70
   128
 43
0.0
 10
34.7794379288
 20
53.9549322743
 10
34.3533389195
 20
54.9690254463
 10
33.3087202219
 20
56.7619746678
 10
31.9713047541
 20
58.3637152315
 10
30.3757308743
 20
59.7327628982
 10
28.5633231077
 20
60.8336600524
 10
26.5810218636
 20
61.6378940361
 10
24.4801677029
 20
62.1246356115
 10
22.3151716447
 20
62.2812784276
 10
20.1421059499
 20
62.1037655176
 10
18.0172518784
 20
61.5966943727
 10
15.9956420346
 20
60.7731978693
 10
14.1296350515
 20
59.654604134
 10
12.4675595299
 20
58.2698841573
 10
11.0524623525
 20
56.654901459
 10
9.9209937932
 20
54.8514832428
 10
9.1024582931
 20
52.9063370931
 10
8.6180554919
 20
50.8698412736
 10
8.4803311675
 20
48.7947399561
 10
8.6847427125
 20
46.7778818615
  0
LWPOLYLINE
  5
156
330
1F
100
AcDbEntity
  8
0
  6
Continuous
 62
     7
370
    25
100
AcDbPolyline
 90
       20
 70
   128
 43
0.0
 10
-14.9550377594
 20
49.8922334215
 10
-15.3811367688
 20
50.9063265935
 10
-16.4257554663
 20
52.699275815
 10
-17.7631709341
 20
54.3010163788
 10
-19.3587448139
 20
55.6700640455
 10
-21.1711525805
 20
56.7709611996
 10
-23.1534538246
 20
57.5751951833
 10
-25.2543079854
 20
58.0619367587
 10
-27.4193040435
 20
58.2185795748
 10
-29.5923697383
 20
58.0410666648
 10
-31.7172238098
 20
57.53399552
 10
-33.7388336536
 20
56.7104990165
 10
-35.6048406367
 20
55.5919052813
 10
-37.2669161584
 20
54.2071853045
 10
-38.6820133357
 20
52.5922026062
 10
-39.813481895
 20
50.78878439
 10
-40.6320173951
 20
48.8436382403
 10
-41.1164201964
 20
46.8071424208
 10
-41.2541445207
 20
44.7320411033
 10
-41.0497329757
 20
42.7151830087
  0
LWPOLYLINE
  5
167
330
1F
100
AcDbEntity
  8
0
  6
Continuous
 62
     7
370
    25
100
AcDbPolyline
 90
       20
 70
   128
 43
0.0
 10
31.9157964263
 20
101.3028341267
 10
31.4896974169
 20
102.3169272987
 10
30.4450787193
 20
104.1098765202
 10
29.1076632516
 20
105.711617084
 10
27.5120893717
 20
107.0806647507
 10
25.6996816052
 20
108.1815619049
 10
23.717380361
 20
108.9857958885
 10
21.6165262003
 20
109.472537464
 10
19.4515301421
 20
109.62918028
 10
17.2784644473
 20
109.4516673701
 10
15.1536103758
 20
108.9445962252
 10
13.132000532
 20
108.1210997217
 10
11.265993549
 20
107.0025059865
 10
9.6039180273
 20
105.6177860097
 10
8.18882085
 20
104.0028033114
 10
7.0573522906
 20
102.1993850952
 10
6.2388167905
 20
100.2542389455
 10
5.7544139893
 20
98.217743126
 10
5.6166896649
 20
96.1426418085
 10
5.8211012099
 20
94.1257837139
  0
LWPOLYLINE
  5
169
330
1F
100
AcDbEntity
  8
0
  6
Continuous
 62
     7
370
    25
100
AcDbPolyline
 90
       20
 70
   128
 43
0.0
 10
-17.818679262
 20
97.2401352739
 10
-18.2447782713
 20
98.2542284459
 10
-19.2893969689
 20
100.0471776675
 10
-20.6268124367
 20
101.6489182312
 10
-22.2223863165
 20
103.0179658979
 10
-24.0347940831
 20
104.1188630521
 10
-26.0170953272
 20
104.9230970358
 10
-28.117949488
 20
105.4098386112
 10
-30.2829455461
 20
105.5664814272
 10
-32.4560112409
 20
105.3889685173
 10
-34.5808653124
 20
104.8818973724
 10
-36.6024751562
 20
104.0584008689
 10
-38.4684821393
 20
102.9398071337
 10
-40.1305576609
 20
101.5550871569
 10
-41.5456548383
 20
99.9401044587
 10
-42.6771233976
 20
98.1366862424
 10
-43.4956588977
 20
96.1915400928
 10
-43.9800616989
 20
94.1550442732
 10
-44.1177860233
 20
92.0799429558
 10
-43.9133744783
 20
90.0630848611
  0
LINE
  5
17E
330
1F
100
AcDbEntity
  8
0
  6
Continuous
 62
     7
370
    25
100
AcDbLine
 10
192.83917164
 20
53.038230374
 30
0.0
 11
192.2961595983
 21
55.0125419521
 31
0.0
  0
LINE
  5
17F
330
1F
100
AcDbEntity
  8
0
  6
Continuous
 62
     7
370
    25
100
AcDbLine
 10
-193.3821836817
 20
-51.0639187959
 30
0.0
 11
-192.83917164
 21
-53.038230374
 31
0.0
  0
LINE
  5
180
330
1F
100
AcDbEntity
  8
0
  6
Continuous
 62
     7
370
    25
100
AcDbLine
 10
49.9709481508
 20
-98.5793332171
 30
0.0
 11
52.8345896534
 21
-145.9272350696
 31
0.0
  0
LINE
  5
181
330
1F
100
AcDbEntity
  8
0
  6
Continuous
 62
     7
370
    25
100
AcDbLine
 10
-38.4569496228
 20
-105.8028117774
 30
0.0
 11
49.9709481508
 21
-98.5793332171
 31
0.0
  0
LINE
  5
182
330
1F
100
AcDbEntity
  8
0
  6
Continuous
 62
     7
370
    25
100
AcDbLine
 10
-35.5933081202
 20
-153.1507136298
 30
0.0
 11
-38.4569496228
 21
-105.8028117774
 31
0.0
  0
LINE
  5
183
330
1F
100
AcDbEntity
  8
0
  6
Continuous
 62
     7
370
    25
100
AcDbLine
 10
-35.5933081202
 20
-153.1507136298
 30
0.0
 11
-60.7690964136
 21
-180.764952247
 31
0.0
  0
LINE
  5
184
330
1F
100
AcDbEntity
  8
0
  6
Continuous
 62
     7
370
    25
100
AcDbLine
 10
52.8345896534
 20
-145.9272350696
 30
0.0
 11
81.0866804479
 21
-169.1770689137
 31
0.0
  0
LINE
  5
185
330
1F
100
AcDbEntity
  8
0
  6
Continuous
 62
     7
370
    25
100
AcDbLine
 10
114.3933507916
 20
95.1072221753
 30
0.0
 11
117.1424466341
 21
49.653236397
 31
0.0
  0
LINE
  5
186
330
1F
100
AcDbEntity
  8
0
  6
Continuous
 62
     7
370
    25
100
AcDbLine
 10
142.0096844782
 20
51.6845858234
 30
0.0
 11
117.1424466341
 21
49.653236397
 31
0.0
  0
LINE
  5
187
330
1F
100
AcDbEntity
  8
0
  6
Continuous
 62
     7
370
    25
100
AcDbLine
 10
139.2605886357
 20
97.1385716017
 30
0.0
 11
142.0096844782
 21
51.6845858234
 31
0.0
  0
LINE
  5
188
330
1F
100
AcDbEntity
  8
0
  6
Continuous
 62
     7
370
    25
100
AcDbLine
 10
139.2605886357
 20
97.1385716017
 30
0.0
 11
114.3933507916
 21
95.1072221753
 31
0.0
  0
LINE
  5
189
330
1F
100
AcDbEntity
  8
0
  6
Continuous
 62
     7
370
    25
100
AcDbLine
 10
103.1108758953
 20
48.8305849684
 30
0.0
 11
101.9264737699
 21
68.4136771746
 31
0.0
  0
LINE
  5
18A
330
1F
100
AcDbEntity
  8
0
  6
Continuous
 62
     7
370
    25
100
AcDbLine
 10
95.431151245
 20
67.8830887044
 30
0.0
 11
101.9264737699
 21
68.4136771746
 31
0.0
  0
LINE
  5
18B
330
1F
100
AcDbEntity
  8
0
  6
Continuous
 62
     7
370
    25
100
AcDbLine
 10
96.6155533705
 20
48.2999964982
 30
0.0
 11
95.431151245
 21
67.8830887044
 31
0.0
  0
LINE
  5
18C
330
1F
100
AcDbEntity
  8
0
  6
Continuous
 62
     7
370
    25
100
AcDbLine
 10
96.6155533705
 20
48.2999964982
 30
0.0
 11
103.1108758953
 21
48.8305849684
 31
0.0
  0
LINE
  5
18D
330
1F
100
AcDbEntity
  8
0
  6
Continuous
 62
     7
370
    25
100
AcDbLine
 10
100.2082888683
 20
96.822418286
 30
0.0
 11
99.0238867428
 21
116.4055104922
 31
0.0
  0
LINE
  5
18E
330
1F
100
AcDbEntity
  8
0
  6
Continuous
 62
     7
370
    25
100
AcDbLine
 10
92.528564218
 20
115.874922022
 30
0.0
 11
99.0238867428
 21
116.4055104922
 31
0.0
  0
LINE
  5
18F
330
1F
100
AcDbEntity
  8
0
  6
Continuous
 62
     7
370
    25
100
AcDbLine
 10
93.7129663434
 20
96.2918298158
 30
0.0
 11
92.528564218
 21
115.874922022
 31
0.0
  0
LINE
  5
190
330
1F
100
AcDbEntity
  8
0
  6
Continuous
 62
     7
370
    25
100
AcDbLine
 10
93.7129663434
 20
96.2918298158
 30
0.0
 11
100.2082888683
 21
96.822418286
 31
0.0
  0
LINE
  5
191
330
1F
100
AcDbEntity
  8
0
  6
Continuous
 62
     7
370
    25
100
AcDbLine
 10
149.5950521859
 20
-24.150260942
 30
0.0
 11
150.7794543113
 21
-43.7333531481
 31
0.0
  0
LINE
  5
192
330
1F
100
AcDbEntity
  8
0
  6
Continuous
 62
     7
370
    25
100
AcDbLine
 10
157.2747768362
 20
-43.202764678
 30
0.0
 11
150.7794543113
 21
-43.7333531481
 31
0.0
  0
LINE
  5
193
330
1F
100
AcDbEntity
  8
0
  6
Continuous
 62
     7
370
    25
100
AcDbLine
 10
156.0903747108
 20
-23.6196724718
 30
0.0
 11
157.2747768362
 21
-43.202764678
 31
0.0
  0
LINE
  5
194
330
1F
100
AcDbEntity
  8
0
  6
Continuous
 62
     7
370
    25
100
AcDbLine
 10
156.0903747108
 20
-23.6196724718
 30
0.0
 11
149.5950521859
 21
-24.150260942
 31
0.0
  0
LINE
  5
195
330
1F
100
AcDbEntity
  8
0
  6
Continuous
 62
     7
370
    25
100
AcDbLine
 10
-158.3608009196
 20
47.1513878342
 30
0.0
 11
-151.8654783947
 21
47.6819763044
 31
0.0
  0
LINE
  5
196
330
1F
100
AcDbEntity
  8
0
  6
Continuous
 62
     7
370
    25
100
AcDbLine
 10
-157.1763987941
 20
27.568295628
 30
0.0
 11
-158.3608009196
 21
47.1513878342
 31
0.0
  0
LINE
  5
197
330
1F
100
AcDbEntity
  8
0
  6
Continuous
 62
     7
370
    25
100
AcDbLine
 10
-157.1763987941
 20
27.568295628
 30
0.0
 11
-150.6810762693
 21
28.0988840982
 31
0.0
  0
LINE
  5
198
330
1F
100
AcDbEntity
  8
0
  6
Continuous
 62
     7
370
    25
100
AcDbLine
 10
-150.6810762693
 20
28.0988840982
 30
0.0
 11
-151.8654783947
 21
47.6819763044
 31
0.0
  0
LINE
  5
199
330
1F
100
AcDbEntity
  8
0
  6
Continuous
 62
     7
370
    25
100
AcDbLine
 10
-147.7784892422
 20
-19.8929492194
 30
0.0
 11
-154.2738117671
 21
-20.4235376896
 31
0.0
  0
LINE
  5
19A
330
1F
100
AcDbEntity
  8
0
  6
Continuous
 62
     7
370
    25
100
AcDbLine
 10
-148.9628913677
 20
-0.3098570133
 30
0.0
 11
-147.7784892422
 21
-19.8929492194
 31
0.0
  0
LINE
  5
19B
330
1F
100
AcDbEntity
  8
0
  6
Continuous
 62
     7
370
    25
100
AcDbLine
 10
-148.9628913677
 20
-0.3098570133
 30
0.0
 11
-155.4582138926
 21
-0.8404454834
 31
0.0
  0
LINE
  5
19C
330
1F
100
AcDbEntity
  8
0
  6
Continuous
 62
     7
370
    25
100
AcDbLine
 10
-155.4582138926
 20
-0.8404454834
 30
0.0
 11
-154.2738117671
 21
-20.4235376896
 31
0.0
  0
LINE
  5
19D
330
1F
100
AcDbEntity
  8
0
  6
Continuous
 62
     7
370
    25
100
AcDbLine
 10
-93.6145883013
 20
-111.9262988658
 30
0.0
 11
-100.1099108262
 21
-112.456887336
 31
0.0
  0
LINE
  5
19E
330
1F
100
AcDbEntity
  8
0
  6
Continuous
 62
     7
370
    25
100
AcDbLine
 10
-94.7989904268
 20
-92.3432066596
 30
0.0
 11
-93.6145883013
 21
-111.9262988658
 31
0.0
  0
LINE
  5
19F
330
1F
100
AcDbEntity
  8
0
  6
Continuous
 62
     7
370
    25
100
AcDbLine
 10
-94.7989904268
 20
-92.3432066596
 30
0.0
 11
-101.2943129517
 21
-92.8737951298
 31
0.0
  0
LINE
  5
1A0
330
1F
100
AcDbEntity
  8
0
  6
Continuous
 62
     7
370
    25
100
AcDbLine
 10
-101.2943129517
 20
-92.8737951298
 30
0.0
 11
-100.1099108262
 21
-112.456887336
 31
0.0
  0
LINE
  5
1A1
330
1F
100
AcDbEntity
  8
0
  6
Continuous
 62
     7
370
    25
100
AcDbLine
 10
-96.5171753284
 20
-63.9344655482
 30
0.0
 11
-103.0124978532
 21
-64.4650540183
 31
0.0
  0
LINE
  5
1A2
330
1F
100
AcDbEntity
  8
0
  6
Continuous
 62
     7
370
    25
100
AcDbLine
 10
-97.7015774538
 20
-44.351373342
 30
0.0
 11
-96.5171753284
 21
-63.9344655482
 31
0.0
  0
LINE
  5
1A3
330
1F
100
AcDbEntity
  8
0
  6
Continuous
 62
     7
370
    25
100
AcDbLine
 10
-97.7015774538
 20
-44.351373342
 30
0.0
 11
-104.1968999787
 21
-44.8819618122
 31
0.0
  0
LINE
  5
1A4
330
1F
100
AcDbEntity
  8
0
  6
Continuous
 62
     7
370
    25
100
AcDbLine
 10
-104.1968999787
 20
-44.8819618122
 30
0.0
 11
-103.0124978532
 21
-64.4650540183
 31
0.0
  0
LINE
  5
1A5
330
1F
100
AcDbEntity
  8
0
  6
Continuous
 62
     7
370
    25
100
AcDbLine
 10
-99.4197623554
 20
-15.9426322305
 30
0.0
 11
-105.9150848803
 21
-16.4732207007
 31
0.0
  0
LINE
  5
1A6
330
1F
100
AcDbEntity
  8
0
  6
Continuous
 62
     7
370
    25
100
AcDbLine
 10
-100.6041644809
 20
3.6404599756
 30
0.0
 11
-99.4197623554
 21
-15.9426322305
 31
0.0
  0
LINE
  5
1A7
330
1F
100
AcDbEntity
  8
0
  6
Continuous
 62
     7
370
    25
100
AcDbLine
 10
-100.6041644809
 20
3.6404599756
 30
0.0
 11
-107.0994870057
 21
3.1098715055
 31
0.0
  0
LINE
  5
1A8
330
1F
100
AcDbEntity
  8
0
  6
Continuous
 62
     7
370
    25
100
AcDbLine
 10
-107.0994870057
 20
3.1098715055
 30
0.0
 11
-105.9150848803
 21
-16.4732207007
 31
0.0
  0
LINE
  5
1A9
330
1F
100
AcDbEntity
  8
0
  6
Continuous
 62
     7
370
    25
100
AcDbLine
 10
59.5845117853
 20
-130.6759048802
 30
0.0
 11
55.3753908294
 21
-135.2927084969
 31
0.0
  0
LINE
  5
1AA
330
1F
100
AcDbEntity
  8
0
  6
Continuous
 62
     7
370
    25
100
AcDbLine
 10
55.3753908294
 20
-135.2927084969
 30
0.0
 11
70.2523849667
 21
-147.5356127234
 31
0.0
  0
LINE
  5
1AB
330
1F
100
AcDbEntity
  8
0
  6
Continuous
 62
     7
370
    25
100
AcDbLine
 10
70.2523849667
 20
-147.5356127234
 30
0.0
 11
74.4615059226
 21
-142.9188091067
 31
0.0
  0
LINE
  5
1AC
330
1F
100
AcDbEntity
  8
0
  6
Continuous
 62
     7
370
    25
100
AcDbLine
 10
74.4615059226
 20
-142.9188091067
 30
0.0
 11
59.5845117853
 21
-130.6759048802
 31
0.0
  0
LINE
  5
1AD
330
1F
100
AcDbEntity
  8
0
  6
Continuous
 62
     7
370
    25
100
AcDbLine
 10
-57.3696926987
 20
-153.6878069093
 30
0.0
 11
-44.1126188217
 21
-139.1466931559
 31
0.0
  0
LINE
  5
1AE
330
1F
100
AcDbEntity
  8
0
  6
Continuous
 62
     7
370
    25
100
AcDbLine
 10
-52.6462470601
 20
-157.5749290012
 30
0.0
 11
-57.3696926987
 21
-153.6878069093
 31
0.0
  0
LINE
  5
1AF
330
1F
100
AcDbEntity
  8
0
  6
Continuous
 62
     7
370
    25
100
AcDbLine
 10
-39.3891731831
 20
-143.0338152477
 30
0.0
 11
-52.6462470601
 21
-157.5749290012
 31
0.0
  0
LINE
  5
1B0
330
1F
100
AcDbEntity
  8
0
  6
Continuous
 62
     7
370
    25
100
AcDbLine
 10
-44.1126188217
 20
-139.1466931559
 30
0.0
 11
-39.3891731831
 21
-143.0338152477
 31
0.0
  0
LINE
  5
1B1
330
1F
100
AcDbEntity
  8
0
  6
Continuous
 62
     7
370
    25
100
AcDbLine
 10
-102.3223493824
 20
32.0492010871
 30
0.0
 11
-103.5067515079
 21
51.6322932933
 31
0.0
  0
LINE
  5
1B2
330
1F
100
AcDbEntity
  8
0
  6
Continuous
 62
     7
370
    25
100
AcDbLine
 10
-103.5067515079
 20
51.6322932933
 30
0.0
 11
-110.0020740328
 21
51.1017048231
 31
0.0
  0
LINE
  5
1B3
330
1F
100
AcDbEntity
  8
0
  6
Continuous
 62
     7
370
    25
100
AcDbLine
 10
-108.8176719073
 20
31.5186126169
 30
0.0
 11
-110.0020740328
 21
51.1017048231
 31
0.0
  0
LINE
  5
1B4
330
1F
100
AcDbEntity
  8
0
  6
Continuous
 62
     7
370
    25
100
AcDbLine
 10
-102.3223493824
 20
32.0492010871
 30
0.0
 11
-108.8176719073
 21
31.5186126169
 31
0.0
  0
LINE
  5
1B5
330
1F
100
AcDbEntity
  8
0
  6
Continuous
 62
     7
370
    25
100
AcDbLine
 10
-105.2249364094
 20
80.0410344047
 30
0.0
 11
-106.4093385349
 21
99.6241266109
 31
0.0
  0
LINE
  5
1B6
330
1F
100
AcDbEntity
  8
0
  6
Continuous
 62
     7
370
    25
100
AcDbLine
 10
-106.4093385349
 20
99.6241266109
 30
0.0
 11
-112.9046610598
 21
99.0935381407
 31
0.0
  0
LINE
  5
1B7
330
1F
100
AcDbEntity
  8
0
  6
Continuous
 62
     7
370
    25
100
AcDbLine
 10
-111.7202589343
 20
79.5104459345
 30
0.0
 11
-112.9046610598
 21
99.0935381407
 31
0.0
  0
LINE
  5
1B8
330
1F
100
AcDbEntity
  8
0
  6
Continuous
 62
     7
370
    25
100
AcDbLine
 10
-105.2249364094
 20
80.0410344047
 30
0.0
 11
-111.7202589343
 21
79.5104459345
 31
0.0
  0
LINE
  5
1B9
330
1F
100
AcDbEntity
  8
0
  6
Continuous
 62
     7
370
    25
100
AcDbLine
 10
-152.5556268656
 20
-48.8322788011
 30
0.0
 11
-151.3712247401
 21
-68.4153710072
 31
0.0
  0
LINE
  5
1BA
330
1F
100
AcDbEntity
  8
0
  6
Continuous
 62
     7
370
    25
100
AcDbLine
 10
-151.3712247401
 20
-68.4153710072
 30
0.0
 11
-144.8759022152
 21
-67.8847825371
 31
0.0
  0
LINE
  5
1BB
330
1F
100
AcDbEntity
  8
0
  6
Continuous
 62
     7
370
    25
100
AcDbLine
 10
-146.0603043407
 20
-48.3016903309
 30
0.0
 11
-144.8759022152
 21
-67.8847825371
 31
0.0
  0
LINE
  5
1BC
330
1F
100
AcDbEntity
  8
0
  6
Continuous
 62
     7
370
    25
100
AcDbLine
 10
-152.5556268656
 20
-48.8322788011
 30
0.0
 11
-146.0603043407
 21
-48.3016903309
 31
0.0
  0
LINE
  5
1BD
330
1F
100
AcDbEntity
  8
0
  6
Continuous
 62
     7
370
    25
100
AcDbLine
 10
150.2852006567
 20
72.3639941635
 30
0.0
 11
143.7898781318
 21
71.8334056933
 31
0.0
  0
LINE
  5
1BE
330
1F
100
AcDbEntity
  8
0
  6
Continuous
 62
     7
370
    25
100
AcDbLine
 10
144.9742802573
 20
52.2503134871
 30
0.0
 11
143.7898781318
 21
71.8334056933
 31
0.0
  0
LINE
  5
1BF
330
1F
100
AcDbEntity
  8
0
  6
Continuous
 62
     7
370
    25
100
AcDbLine
 10
151.4696027822
 20
52.7809019573
 30
0.0
 11
144.9742802573
 21
52.2503134871
 31
0.0
  0
LINE
  5
1C0
330
1F
100
AcDbEntity
  8
0
  6
Continuous
 62
     7
370
    25
100
AcDbLine
 10
151.4696027822
 20
52.7809019573
 30
0.0
 11
150.2852006567
 21
72.3639941635
 31
0.0
  0
LINE
  5
1C1
330
1F
100
AcDbEntity
  8
0
  6
Continuous
 62
     7
370
    25
100
AcDbLine
 10
147.8768672843
 20
4.2584801695
 30
0.0
 11
154.3721898092
 21
4.7890686397
 31
0.0
  0
LINE
  5
1C2
330
1F
100
AcDbEntity
  8
0
  6
Continuous
 62
     7
370
    25
100
AcDbLine
 10
153.1877876837
 20
24.3721608458
 30
0.0
 11
154.3721898092
 21
4.7890686397
 31
0.0
  0
LINE
  5
1C3
330
1F
100
AcDbEntity
  8
0
  6
Continuous
 62
     7
370
    25
100
AcDbLine
 10
146.6924651589
 20
23.8415723757
 30
0.0
 11
153.1877876837
 21
24.3721608458
 31
0.0
  0
LINE
  5
1C4
330
1F
100
AcDbEntity
  8
0
  6
Continuous
 62
     7
370
    25
100
AcDbLine
 10
146.6924651589
 20
23.8415723757
 30
0.0
 11
147.8768672843
 21
4.2584801695
 31
0.0
  0
LINE
  5
1C5
330
1F
100
AcDbEntity
  8
0
  6
Continuous
 62
     7
370
    25
100
AcDbLine
 10
105.3233144515
 20
-95.6755034547
 30
0.0
 11
111.8186369764
 21
-95.1449149845
 31
0.0
  0
LINE
  5
1C6
330
1F
100
AcDbEntity
  8
0
  6
Continuous
 62
     7
370
    25
100
AcDbLine
 10
110.6342348509
 20
-75.5618227783
 30
0.0
 11
111.8186369764
 21
-95.1449149845
 31
0.0
  0
LINE
  5
1C7
330
1F
100
AcDbEntity
  8
0
  6
Continuous
 62
     7
370
    25
100
AcDbLine
 10
104.1389123261
 20
-76.0924112485
 30
0.0
 11
110.6342348509
 21
-75.5618227783
 31
0.0
  0
LINE
  5
1C8
330
1F
100
AcDbEntity
  8
0
  6
Continuous
 62
     7
370
    25
100
AcDbLine
 10
104.1389123261
 20
-76.0924112485
 30
0.0
 11
105.3233144515
 21
-95.6755034547
 31
0.0
  0
LINE
  5
1C9
330
1F
100
AcDbEntity
  8
0
  6
Continuous
 62
     7
370
    25
100
AcDbLine
 10
102.4207274245
 20
-47.683670137
 30
0.0
 11
108.9160499494
 21
-47.1530816669
 31
0.0
  0
LINE
  5
1CA
330
1F
100
AcDbEntity
  8
0
  6
Continuous
 62
     7
370
    25
100
AcDbLine
 10
107.7316478239
 20
-27.5699894607
 30
0.0
 11
108.9160499494
 21
-47.1530816669
 31
0.0
  0
LINE
  5
1CB
330
1F
100
AcDbEntity
  8
0
  6
Continuous
 62
     7
370
    25
100
AcDbLine
 10
101.236325299
 20
-28.1005779309
 30
0.0
 11
107.7316478239
 21
-27.5699894607
 31
0.0
  0
LINE
  5
1CC
330
1F
100
AcDbEntity
  8
0
  6
Continuous
 62
     7
370
    25
100
AcDbLine
 10
101.236325299
 20
-28.1005779309
 30
0.0
 11
102.4207274245
 21
-47.683670137
 31
0.0
  0
LINE
  5
1CD
330
1F
100
AcDbEntity
  8
0
  6
Continuous
 62
     7
370
    25
100
AcDbLine
 10
99.5181403975
 20
0.3081631806
 30
0.0
 11
106.0134629224
 21
0.8387516508
 31
0.0
  0
LINE
  5
1CE
330
1F
100
AcDbEntity
  8
0
  6
Continuous
 62
     7
370
    25
100
AcDbLine
 10
104.8290607969
 20
20.4218438569
 30
0.0
 11
106.0134629224
 21
0.8387516508
 31
0.0
  0
LINE
  5
1CF
330
1F
100
AcDbEntity
  8
0
  6
Continuous
 62
     7
370
    25
100
AcDbLine
 10
98.333738272
 20
19.8912553868
 30
0.0
 11
104.8290607969
 21
20.4218438569
 31
0.0
  0
LINE
  5
1D0
330
1F
100
AcDbEntity
  8
0
  6
Continuous
 62
     7
370
    25
100
AcDbLine
 10
98.333738272
 20
19.8912553868
 30
0.0
 11
99.5181403975
 21
0.3081631806
 31
0.0
  0
LINE
  5
1D1
330
1F
100
AcDbEntity
  8
0
  6
Continuous
 62
     7
370
    25
100
AcDbLine
 10
-103.8786171392
 20
-99.7273241596
 30
0.0
 11
-106.7422586418
 21
-52.3794223071
 31
0.0
  0
LINE
  5
1D2
330
1F
100
AcDbEntity
  8
0
  6
Continuous
 62
     7
370
    25
100
AcDbLine
 10
-106.7422586418
 20
-52.3794223071
 30
0.0
 11
-131.6094964859
 21
-54.4107717335
 31
0.0
  0
LINE
  5
1D3
330
1F
100
AcDbEntity
  8
0
  6
Continuous
 62
     7
370
    25
100
AcDbLine
 10
-128.7458549833
 20
-101.758673586
 30
0.0
 11
-131.6094964859
 21
-54.4107717335
 31
0.0
  0
LINE
  5
1D4
330
1F
100
AcDbEntity
  8
0
  6
Continuous
 62
     7
370
    25
100
AcDbLine
 10
-103.8786171392
 20
-99.7273241596
 30
0.0
 11
-128.7458549833
 21
-101.758673586
 31
0.0
  0
LINE
  5
1D5
330
1F
100
AcDbEntity
  8
0
  6
Continuous
 62
     7
370
    25
100
AcDbLine
 10
-150.4266308082
 20
73.4746660751
 30
0.0
 11
-147.6775349657
 21
28.0206802968
 31
0.0
  0
LINE
  5
1D6
330
1F
100
AcDbEntity
  8
0
  6
Continuous
 62
     7
370
    25
100
AcDbLine
 10
-147.6775349657
 20
28.0206802968
 30
0.0
 11
-122.8102971216
 21
30.0520297232
 31
0.0
  0
LINE
  5
1D7
330
1F
100
AcDbEntity
  8
0
  6
Continuous
 62
     7
370
    25
100
AcDbLine
 10
-125.5593929641
 20
75.5060155015
 30
0.0
 11
-122.8102971216
 21
30.0520297232
 31
0.0
  0
LINE
  5
1D8
330
1F
100
AcDbEntity
  8
0
  6
Continuous
 62
     7
370
    25
100
AcDbLine
 10
-150.4266308082
 20
73.4746660751
 30
0.0
 11
-125.5593929641
 21
75.5060155015
 31
0.0
  0
LINE
  5
1D9
330
1F
100
AcDbEntity
  8
0
  6
Continuous
 62
     7
370
    25
100
AcDbLine
 10
114.018067746
 20
-81.9278279458
 30
0.0
 11
138.8853055901
 21
-79.8964785194
 31
0.0
  0
LINE
  5
1DA
330
1F
100
AcDbEntity
  8
0
  6
Continuous
 62
     7
370
    25
100
AcDbLine
 10
138.8853055901
 20
-79.8964785194
 30
0.0
 11
136.0216640875
 21
-32.5485766669
 31
0.0
  0
LINE
  5
1DB
330
1F
100
AcDbEntity
  8
0
  6
Continuous
 62
     7
370
    25
100
AcDbLine
 10
111.1544262434
 20
-34.5799260933
 30
0.0
 11
136.0216640875
 21
-32.5485766669
 31
0.0
  0
LINE
  5
1DC
330
1F
100
AcDbEntity
  8
0
  6
Continuous
 62
     7
370
    25
100
AcDbLine
 10
114.018067746
 20
-81.9278279458
 30
0.0
 11
111.1544262434
 21
-34.5799260933
 31
0.0
  0
LINE
  5
1DD
330
1F
100
AcDbEntity
  8
0
  6
Continuous
 62
     7
370
    25
100
AcDbLine
 10
-50.4804954318
 20
174.7548168122
 30
0.0
 11
-48.8115321711
 21
168.9803104531
 31
0.0
  0
LINE
  5
1DE
330
1F
100
AcDbEntity
  8
0
  6
Continuous
 62
     7
370
    25
100
AcDbLine
 10
-69.293687842
 20
168.3196444624
 30
0.0
 11
-66.9959678877
 21
162.760208337
 31
0.0
  0
LINE
  5
1DF
330
1F
100
AcDbEntity
  8
0
  6
Continuous
 62
     7
370
    25
100
AcDbLine
 10
47.5091784323
 20
177.8610111753
 30
0.0
 11
45.9032236454
 21
171.9826925308
 31
0.0
  0
LINE
  5
1E0
330
1F
100
AcDbEntity
  8
0
  6
Continuous
 62
     7
370
    25
100
AcDbLine
 10
28.1063844535
 20
181.1744044792
 30
0.0
 11
27.1488914654
 21
175.1853487428
 31
0.0
  0
LINE
  5
1E1
330
1F
100
AcDbEntity
  8
0
  6
Continuous
 62
     7
370
    25
100
AcDbLine
 10
132.6233066642
 20
133.8385064219
 30
0.0
 11
128.172748118
 21
129.4314662258
 31
0.0
  0
LINE
  5
1E2
330
1F
100
AcDbEntity
  8
0
  6
Continuous
 62
     7
370
    25
100
AcDbLine
 10
117.8298740945
 20
146.0126443196
 30
0.0
 11
113.8737276368
 21
141.1987316201
 31
0.0
  0
LINE
  5
1E3
330
1F
100
AcDbEntity
  8
0
  6
Continuous
 62
     7
370
    25
100
AcDbLine
 10
182.0556273399
 20
54.4830971495
 30
0.0
 11
175.9529886027
 21
52.7281982633
 31
0.0
  0
LINE
  5
1E4
330
1F
100
AcDbEntity
  8
0
  6
Continuous
 62
     7
370
    25
100
AcDbLine
 10
175.8354444896
 20
72.2559292228
 30
0.0
 11
169.9406908108
 21
69.9070435805
 31
0.0
  0
LINE
  5
1E5
330
1F
100
AcDbEntity
  8
0
  6
Continuous
 62
     7
370
    25
100
AcDbLine
 10
182.5607900543
 20
-38.9419988122
 30
0.0
 11
176.4412682474
 21
-37.5745326492
 31
0.0
  0
LINE
  5
1E6
330
1F
100
AcDbEntity
  8
0
  6
Continuous
 62
     7
370
    25
100
AcDbLine
 10
186.5805498949
 20
-20.3326885647
 30
0.0
 11
180.3266834828
 21
-19.5871651388
 31
0.0
  0
LINE
  5
1E7
330
1F
100
AcDbEntity
  8
0
  6
Continuous
 62
     7
370
    25
100
AcDbLine
 10
134.003436866
 20
-121.4036024476
 30
0.0
 11
129.5067529157
 21
-117.2801826894
 31
0.0
  0
LINE
  5
1E8
330
1F
100
AcDbEntity
  8
0
  6
Continuous
 62
     7
370
    25
100
AcDbLine
 10
147.1860479944
 20
-106.9441636783
 30
0.0
 11
142.2487873037
 21
-103.3039935842
 31
0.0
  0
LINE
  5
1E9
330
1F
100
AcDbEntity
  8
0
  6
Continuous
 62
     7
370
    25
100
AcDbLine
 10
-135.0894609494
 20
125.3522256038
 30
0.0
 11
-130.592776999
 21
121.2288058456
 31
0.0
  0
LINE
  5
1EA
330
1F
100
AcDbEntity
  8
0
  6
Continuous
 62
     7
370
    25
100
AcDbLine
 10
-148.2720720778
 20
110.8927868345
 30
0.0
 11
-143.3348113871
 21
107.2526167404
 31
0.0
  0
LINE
  5
1EB
330
1F
100
AcDbEntity
  8
0
  6
Continuous
 62
     7
370
    25
100
AcDbLine
 10
-183.6468141377
 20
42.8906219684
 30
0.0
 11
-177.5272923308
 21
41.5231558054
 31
0.0
  0
LINE
  5
1EC
330
1F
100
AcDbEntity
  8
0
  6
Continuous
 62
     7
370
    25
100
AcDbLine
 10
-187.6665739782
 20
24.2813117209
 30
0.0
 11
-181.4127075661
 21
23.535788295
 31
0.0
  0
LINE
  5
1ED
330
1F
100
AcDbEntity
  8
0
  6
Continuous
 62
     7
370
    25
100
AcDbLine
 10
-183.1416514233
 20
-50.5344739933
 30
0.0
 11
-177.0390126861
 21
-48.7795751071
 31
0.0
  0
LINE
  5
1EE
330
1F
100
AcDbEntity
  8
0
  6
Continuous
 62
     7
370
    25
100
AcDbLine
 10
-176.921468573
 20
-68.3073060666
 30
0.0
 11
-171.0267148942
 21
-65.9584204243
 31
0.0
  0
LINE
  5
1EF
330
1F
100
AcDbEntity
  8
0
  6
Continuous
 62
     7
370
    25
100
AcDbLine
 10
-133.7093307476
 20
-129.8898832657
 30
0.0
 11
-129.2587722014
 21
-125.4828430696
 31
0.0
  0
LINE
  5
1F0
330
1F
100
AcDbEntity
  8
0
  6
Continuous
 62
     7
370
    25
100
AcDbLine
 10
-118.9158981779
 20
-142.0640211634
 30
0.0
 11
-114.9597517202
 21
-137.2501084639
 31
0.0
  0
LINE
  5
1F1
330
1F
100
AcDbEntity
  8
0
  6
Continuous
 62
     7
370
    25
100
AcDbLine
 10
81.0866804479
 20
-169.1770689137
 30
0.0
 11
81.6296924896
 21
-171.1513804919
 31
0.0
  0
LINE
  5
1F2
330
1F
100
AcDbEntity
  8
0
  6
Continuous
 62
     7
370
    25
100
AcDbLine
 10
-60.7690964136
 20
-180.764952247
 30
0.0
 11
-60.2260843719
 21
-182.7392638251
 31
0.0
  0
LINE
  5
1F3
330
1F
100
AcDbEntity
  8
0
  6
Continuous
 62
     7
370
    25
100
AcDbLine
 10
52.8345896534
 20
-145.9272350696
 30
0.0
 11
53.3776016951
 21
-147.9015466477
 31
0.0
  0
LINE
  5
1F4
330
1F
100
AcDbEntity
  8
0
  6
Continuous
 62
     7
370
    25
100
AcDbLine
 10
53.3776016951
 20
-147.9015466477
 30
0.0
 11
81.6296924896
 21
-171.1513804919
 31
0.0
  0
LINE
  5
1F5
330
1F
100
AcDbEntity
  8
0
  6
Continuous
 62
     7
370
    25
100
AcDbLine
 10
-35.5933081202
 20
-153.1507136298
 30
0.0
 11
-35.0502960785
 21
-155.1250252079
 31
0.0
  0
LINE
  5
1F6
330
1F
100
AcDbEntity
  8
0
  6
Continuous
 62
     7
370
    25
100
AcDbLine
 10
-35.0502960785
 20
-155.1250252079
 30
0.0
 11
-60.2260843719
 21
-182.7392638251
 31
0.0
  0
LINE
  5
1F7
330
1F
100
AcDbEntity
  8
0
  6
Continuous
 62
     7
370
    25
100
AcDbLine
 10
59.5845117853
 20
-130.6759048802
 30
0.0
 11
60.127523827
 21
-132.6502164583
 31
0.0
  0
LINE
  5
1F8
330
1F
100
AcDbEntity
  8
0
  6
Continuous
 62
     7
370
    25
100
AcDbLine
 10
73.6658788222
 20
-143.7914982294
 30
0.0
 11
60.127523827
 21
-132.6502164583
 31
0.0
  0
LINE
  5
1F9
330
1F
100
AcDbEntity
  8
0
  6
Continuous
 62
     7
370
    25
100
AcDbLine
 10
142.2487873037
 20
-103.3039935842
 30
0.0
 11
142.7917993454
 21
-105.2783051623
 31
0.0
  0
LINE
  5
1FA
330
1F
100
AcDbEntity
  8
0
  6
Continuous
 62
     7
370
    25
100
AcDbLine
 10
60.127523827
 20
-132.6502164583
 30
0.0
 11
56.7140299714
 21
-136.3943309523
 31
0.0
  0
LINE
  5
1FB
330
1F
100
AcDbEntity
  8
0
  6
Continuous
 62
     7
370
    25
100
AcDbLine
 10
146.3771658741
 20
-107.9217434638
 30
0.0
 11
142.7917993454
 21
-105.2783051623
 31
0.0
  0
LINE
  5
1FC
330
1F
100
AcDbEntity
  8
0
  6
Continuous
 62
     7
370
    25
100
AcDbLine
 10
-38.4569496228
 20
-105.8028117774
 30
0.0
 11
-37.9139375811
 21
-107.7771233555
 31
0.0
  0
LINE
  5
1FD
330
1F
100
AcDbEntity
  8
0
  6
Continuous
 62
     7
370
    25
100
AcDbLine
 10
-35.0502960785
 20
-155.1250252079
 30
0.0
 11
-37.9139375811
 21
-107.7771233555
 31
0.0
  0
LINE
  5
1FE
330
1F
100
AcDbEntity
  8
0
  6
Continuous
 62
     7
370
    25
100
AcDbLine
 10
-44.1126188217
 20
-139.1466931559
 30
0.0
 11
-43.56960678
 21
-141.121004734
 31
0.0
  0
LINE
  5
1FF
330
1F
100
AcDbEntity
  8
0
  6
Continuous
 62
     7
370
    25
100
AcDbLine
 10
-56.0310535567
 20
-154.7894293646
 30
0.0
 11
-43.56960678
 21
-141.121004734
 31
0.0
  0
LINE
  5
200
330
1F
100
AcDbEntity
  8
0
  6
Continuous
 62
     7
370
    25
100
AcDbLine
 10
-43.56960678
 20
-141.121004734
 30
0.0
 11
-40.1848002835
 21
-143.9065043705
 31
0.0
  0
LINE
  5
201
330
1F
100
AcDbEntity
  8
0
  6
Continuous
 62
     7
370
    25
100
AcDbLine
 10
104.1389123261
 20
-76.0924112485
 30
0.0
 11
104.6819243677
 21
-78.0667228266
 31
0.0
  0
LINE
  5
202
330
1F
100
AcDbEntity
  8
0
  6
Continuous
 62
     7
370
    25
100
AcDbLine
 10
104.6819243677
 20
-78.0667228266
 30
0.0
 11
105.7448358981
 21
-95.6410703039
 31
0.0
  0
LINE
  5
203
330
1F
100
AcDbEntity
  8
0
  6
Continuous
 62
     7
370
    25
100
AcDbLine
 10
111.1544262434
 20
-34.5799260933
 30
0.0
 11
111.6974382851
 21
-36.5542376714
 31
0.0
  0
LINE
  5
204
330
1F
100
AcDbEntity
  8
0
  6
Continuous
 62
     7
370
    25
100
AcDbLine
 10
114.4395891926
 20
-81.893394795
 30
0.0
 11
111.6974382851
 21
-36.5542376714
 31
0.0
  0
LINE
  5
205
330
1F
100
AcDbEntity
  8
0
  6
Continuous
 62
     7
370
    25
100
AcDbLine
 10
-37.9139375811
 20
-107.7771233555
 30
0.0
 11
50.0924387459
 21
-100.588077946
 31
0.0
  0
LINE
  5
206
330
1F
100
AcDbEntity
  8
0
  6
Continuous
 62
     7
370
    25
100
AcDbLine
 10
104.6819243677
 20
-78.0667228266
 30
0.0
 11
110.7557254461
 21
-77.5705675072
 31
0.0
  0
LINE
  5
207
330
1F
100
AcDbEntity
  8
0
  6
Continuous
 62
     7
370
    25
100
AcDbLine
 10
-129.2587722014
 20
-125.4828430696
 30
0.0
 11
-128.7157601597
 21
-127.4571546477
 31
0.0
  0
LINE
  5
208
330
1F
100
AcDbEntity
  8
0
  6
Continuous
 62
     7
370
    25
100
AcDbLine
 10
-132.3858375417
 20
-131.0913453626
 30
0.0
 11
-128.7157601597
 21
-127.4571546477
 31
0.0
  0
LINE
  5
209
330
1F
100
AcDbEntity
  8
0
  6
Continuous
 62
     7
370
    25
100
AcDbLine
 10
180.3266834828
 20
-19.5871651388
 30
0.0
 11
180.8696955245
 21
-21.5614767169
 31
0.0
  0
LINE
  5
20A
330
1F
100
AcDbEntity
  8
0
  6
Continuous
 62
     7
370
    25
100
AcDbLine
 10
149.5950521859
 20
-24.150260942
 30
0.0
 11
150.1380642276
 21
-26.1245725201
 31
0.0
  0
LINE
  5
20B
330
1F
100
AcDbEntity
  8
0
  6
Continuous
 62
     7
370
    25
100
AcDbLine
 10
150.1380642276
 20
-26.1245725201
 30
0.0
 11
151.2009757579
 21
-43.6989199974
 31
0.0
  0
LINE
  5
20C
330
1F
100
AcDbEntity
  8
0
  6
Continuous
 62
     7
370
    25
100
AcDbLine
 10
-101.2943129517
 20
-92.8737951298
 30
0.0
 11
-100.75130091
 21
-94.8481067079
 31
0.0
  0
LINE
  5
20D
330
1F
100
AcDbEntity
  8
0
  6
Continuous
 62
     7
370
    25
100
AcDbLine
 10
-100.75130091
 20
-94.8481067079
 30
0.0
 11
-99.6883893796
 21
-112.4224541852
 31
0.0
  0
LINE
  5
20E
330
1F
100
AcDbEntity
  8
0
  6
Continuous
 62
     7
370
    25
100
AcDbLine
 10
101.236325299
 20
-28.1005779309
 30
0.0
 11
101.7793373407
 21
-30.074889509
 31
0.0
  0
LINE
  5
20F
330
1F
100
AcDbEntity
  8
0
  6
Continuous
 62
     7
370
    25
100
AcDbLine
 10
101.7793373407
 20
-30.074889509
 30
0.0
 11
102.8422488711
 21
-47.6492369863
 31
0.0
  0
LINE
  5
210
330
1F
100
AcDbEntity
  8
0
  6
Continuous
 62
     7
370
    25
100
AcDbLine
 10
186.2707370302
 20
-22.2053348842
 30
0.0
 11
180.8696955245
 21
-21.5614767169
 31
0.0
  0
LINE
  5
211
330
1F
100
AcDbEntity
  8
0
  6
Continuous
 62
     7
370
    25
100
AcDbLine
 10
111.6974382851
 20
-36.5542376714
 30
0.0
 11
136.1431546826
 21
-34.5573213958
 31
0.0
  0
LINE
  5
212
330
1F
100
AcDbEntity
  8
0
  6
Continuous
 62
     7
370
    25
100
AcDbLine
 10
156.2118653059
 20
-25.6284172006
 30
0.0
 11
150.1380642276
 21
-26.1245725201
 31
0.0
  0
LINE
  5
213
330
1F
100
AcDbEntity
  8
0
  6
Continuous
 62
     7
370
    25
100
AcDbLine
 10
-131.6094964859
 20
-54.4107717335
 30
0.0
 11
-131.0664844442
 21
-56.3850833116
 31
0.0
  0
LINE
  5
214
330
1F
100
AcDbEntity
  8
0
  6
Continuous
 62
     7
370
    25
100
AcDbLine
 10
-128.3243335368
 20
-101.7242404352
 30
0.0
 11
-131.0664844442
 21
-56.3850833116
 31
0.0
  0
LINE
  5
215
330
1F
100
AcDbEntity
  8
0
  6
Continuous
 62
     7
370
    25
100
AcDbLine
 10
-94.6774998317
 20
-94.3519513885
 30
0.0
 11
-100.75130091
 21
-94.8481067079
 31
0.0
  0
LINE
  5
216
330
1F
100
AcDbEntity
  8
0
  6
Continuous
 62
     7
370
    25
100
AcDbLine
 10
101.7793373407
 20
-30.074889509
 30
0.0
 11
107.853138419
 21
-29.5787341895
 31
0.0
  0
LINE
  5
217
330
1F
100
AcDbEntity
  8
0
  6
Continuous
 62
     7
370
    25
100
AcDbLine
 10
146.6924651589
 20
23.8415723757
 30
0.0
 11
147.2354772005
 21
21.8672607975
 31
0.0
  0
LINE
  5
218
330
1F
100
AcDbEntity
  8
0
  6
Continuous
 62
     7
370
    25
100
AcDbLine
 10
147.2354772005
 20
21.8672607975
 30
0.0
 11
148.2983887309
 21
4.2929133202
 31
0.0
  0
LINE
  5
219
330
1F
100
AcDbEntity
  8
0
  6
Continuous
 62
     7
370
    25
100
AcDbLine
 10
-104.1968999787
 20
-44.8819618122
 30
0.0
 11
-103.653887937
 21
-46.8562733903
 31
0.0
  0
LINE
  5
21A
330
1F
100
AcDbEntity
  8
0
  6
Continuous
 62
     7
370
    25
100
AcDbLine
 10
-103.653887937
 20
-46.8562733903
 30
0.0
 11
-102.5909764067
 21
-64.4306208676
 31
0.0
  0
LINE
  5
21B
330
1F
100
AcDbEntity
  8
0
  6
Continuous
 62
     7
370
    25
100
AcDbLine
 10
98.333738272
 20
19.8912553868
 30
0.0
 11
98.8767503137
 21
17.9169438086
 31
0.0
  0
LINE
  5
21C
330
1F
100
AcDbEntity
  8
0
  6
Continuous
 62
     7
370
    25
100
AcDbLine
 10
98.8767503137
 20
17.9169438086
 30
0.0
 11
99.939661844
 21
0.3425963313
 31
0.0
  0
LINE
  5
21D
330
1F
100
AcDbEntity
  8
0
  6
Continuous
 62
     7
370
    25
100
AcDbLine
 10
-152.5556268656
 20
-48.8322788011
 30
0.0
 11
-152.0126148239
 21
-50.8065903792
 31
0.0
  0
LINE
  5
21E
330
1F
100
AcDbEntity
  8
0
  6
Continuous
 62
     7
370
    25
100
AcDbLine
 10
-152.0126148239
 20
-50.8065903792
 30
0.0
 11
-150.9497032935
 21
-68.3809378565
 31
0.0
  0
LINE
  5
21F
330
1F
100
AcDbEntity
  8
0
  6
Continuous
 62
     7
370
    25
100
AcDbLine
 10
-106.6207680467
 20
-54.388167036
 30
0.0
 11
-131.0664844442
 21
-56.3850833116
 31
0.0
  0
LINE
  5
220
330
1F
100
AcDbEntity
  8
0
  6
Continuous
 62
     7
370
    25
100
AcDbLine
 10
-177.0390126861
 20
-48.7795751071
 30
0.0
 11
-176.4960006444
 21
-50.7538866852
 31
0.0
  0
LINE
  5
221
330
1F
100
AcDbEntity
  8
0
  6
Continuous
 62
     7
370
    25
100
AcDbLine
 10
147.2354772005
 20
21.8672607975
 30
0.0
 11
153.3092782788
 21
22.363416117
 31
0.0
  0
LINE
  5
222
330
1F
100
AcDbEntity
  8
0
  6
Continuous
 62
     7
370
    25
100
AcDbLine
 10
-97.5800868587
 20
-46.3601180708
 30
0.0
 11
-103.653887937
 21
-46.8562733903
 31
0.0
  0
LINE
  5
223
330
1F
100
AcDbEntity
  8
0
  6
Continuous
 62
     7
370
    25
100
AcDbLine
 10
98.8767503137
 20
17.9169438086
 30
0.0
 11
104.950551392
 21
18.4130991281
 31
0.0
  0
LINE
  5
224
330
1F
100
AcDbEntity
  8
0
  6
Continuous
 62
     7
370
    25
100
AcDbLine
 10
-152.0126148239
 20
-50.8065903792
 30
0.0
 11
-145.9388137456
 21
-50.3104350597
 31
0.0
  0
LINE
  5
225
330
1F
100
AcDbEntity
  8
0
  6
Continuous
 62
     7
370
    25
100
AcDbLine
 10
-182.561316229
 20
-52.4980527783
 30
0.0
 11
-176.4960006444
 21
-50.7538866852
 31
0.0
  0
LINE
  5
226
330
1F
100
AcDbEntity
  8
0
  6
Continuous
 62
     7
370
    25
100
AcDbLine
 10
175.8354444896
 20
72.2559292228
 30
0.0
 11
176.3784565313
 21
70.2816176447
 31
0.0
  0
LINE
  5
227
330
1F
100
AcDbEntity
  8
0
  6
Continuous
 62
     7
370
    25
100
AcDbLine
 10
143.7898781318
 20
71.8334056933
 30
0.0
 11
144.3328901735
 21
69.8590941152
 31
0.0
  0
LINE
  5
228
330
1F
100
AcDbEntity
  8
0
  6
Continuous
 62
     7
370
    25
100
AcDbLine
 10
145.3958017039
 20
52.2847466378
 30
0.0
 11
144.3328901735
 21
69.8590941152
 31
0.0
  0
LINE
  5
229
330
1F
100
AcDbEntity
  8
0
  6
Continuous
 62
     7
370
    25
100
AcDbLine
 10
-107.0994870057
 20
3.1098715055
 30
0.0
 11
-106.556474964
 21
1.1355599273
 31
0.0
  0
LINE
  5
22A
330
1F
100
AcDbEntity
  8
0
  6
Continuous
 62
     7
370
    25
100
AcDbLine
 10
-106.556474964
 20
1.1355599273
 30
0.0
 11
-105.4935634337
 21
-16.43878755
 31
0.0
  0
LINE
  5
22B
330
1F
100
AcDbEntity
  8
0
  6
Continuous
 62
     7
370
    25
100
AcDbLine
 10
114.3933507916
 20
95.1072221753
 30
0.0
 11
114.9363628333
 21
93.1329105972
 31
0.0
  0
LINE
  5
22C
330
1F
100
AcDbEntity
  8
0
  6
Continuous
 62
     7
370
    25
100
AcDbLine
 10
114.9363628333
 20
93.1329105972
 30
0.0
 11
117.5639680807
 21
49.6876695477
 31
0.0
  0
LINE
  5
22D
330
1F
100
AcDbEntity
  8
0
  6
Continuous
 62
     7
370
    25
100
AcDbLine
 10
95.431151245
 20
67.8830887044
 30
0.0
 11
95.9741632867
 21
65.9087771263
 31
0.0
  0
LINE
  5
22E
330
1F
100
AcDbEntity
  8
0
  6
Continuous
 62
     7
370
    25
100
AcDbLine
 10
97.037074817
 20
48.3344296489
 30
0.0
 11
95.9741632867
 21
65.9087771263
 31
0.0
  0
LINE
  5
22F
330
1F
100
AcDbEntity
  8
0
  6
Continuous
 62
     7
370
    25
100
AcDbLine
 10
176.3784565313
 20
70.2816176447
 30
0.0
 11
170.7064111635
 21
68.0214747018
 31
0.0
  0
LINE
  5
230
330
1F
100
AcDbEntity
  8
0
  6
Continuous
 62
     7
370
    25
100
AcDbLine
 10
-155.4582138926
 20
-0.8404454834
 30
0.0
 11
-154.9152018509
 21
-2.8147570616
 31
0.0
  0
LINE
  5
231
330
1F
100
AcDbEntity
  8
0
  6
Continuous
 62
     7
370
    25
100
AcDbLine
 10
-154.9152018509
 20
-2.8147570616
 30
0.0
 11
-153.8522903205
 21
-20.3891045389
 31
0.0
  0
LINE
  5
232
330
1F
100
AcDbEntity
  8
0
  6
Continuous
 62
     7
370
    25
100
AcDbLine
 10
150.4066912518
 20
70.3552494346
 30
0.0
 11
144.3328901735
 21
69.8590941152
 31
0.0
  0
LINE
  5
233
330
1F
100
AcDbEntity
  8
0
  6
Continuous
 62
     7
370
    25
100
AcDbLine
 10
-100.4826738857
 20
1.6317152468
 30
0.0
 11
-106.556474964
 21
1.1355599273
 31
0.0
  0
LINE
  5
234
330
1F
100
AcDbEntity
  8
0
  6
Continuous
 62
     7
370
    25
100
AcDbLine
 10
95.9741632867
 20
65.9087771263
 30
0.0
 11
102.047964365
 21
66.4049324457
 31
0.0
  0
LINE
  5
235
330
1F
100
AcDbEntity
  8
0
  6
Continuous
 62
     7
370
    25
100
AcDbLine
 10
-148.8414007726
 20
-2.3186017421
 30
0.0
 11
-154.9152018509
 21
-2.8147570616
 31
0.0
  0
LINE
  5
236
330
1F
100
AcDbEntity
  8
0
  6
Continuous
 62
     7
370
    25
100
AcDbLine
 10
139.3820792309
 20
95.1298268729
 30
0.0
 11
114.9363628333
 21
93.1329105972
 31
0.0
  0
LINE
  5
237
330
1F
100
AcDbEntity
  8
0
  6
Continuous
 62
     7
370
    25
100
AcDbLine
 10
-110.0020740328
 20
51.1017048231
 30
0.0
 11
-109.4590619911
 21
49.127393245
 31
0.0
  0
LINE
  5
238
330
1F
100
AcDbEntity
  8
0
  6
Continuous
 62
     7
370
    25
100
AcDbLine
 10
-108.3961504607
 20
31.5530457676
 30
0.0
 11
-109.4590619911
 21
49.127393245
 31
0.0
  0
LINE
  5
239
330
1F
100
AcDbEntity
  8
0
  6
Continuous
 62
     7
370
    25
100
AcDbLine
 10
-150.4266308082
 20
73.4746660751
 30
0.0
 11
-149.8836187665
 21
71.500354497
 31
0.0
  0
LINE
  5
23A
330
1F
100
AcDbEntity
  8
0
  6
Continuous
 62
     7
370
    25
100
AcDbLine
 10
-149.8836187665
 20
71.500354497
 30
0.0
 11
-147.2560135192
 21
28.0551134475
 31
0.0
  0
LINE
  5
23B
330
1F
100
AcDbEntity
  8
0
  6
Continuous
 62
     7
370
    25
100
AcDbLine
 10
92.528564218
 20
115.874922022
 30
0.0
 11
93.0715762596
 21
113.9006104439
 31
0.0
  0
LINE
  5
23C
330
1F
100
AcDbEntity
  8
0
  6
Continuous
 62
     7
370
    25
100
AcDbLine
 10
94.13448779
 20
96.3262629666
 30
0.0
 11
93.0715762596
 21
113.9006104439
 31
0.0
  0
LINE
  5
23D
330
1F
100
AcDbEntity
  8
0
  6
Continuous
 62
     7
370
    25
100
AcDbLine
 10
-158.3608009196
 20
47.1513878342
 30
0.0
 11
-157.8177888779
 21
45.1770762561
 31
0.0
  0
LINE
  5
23E
330
1F
100
AcDbEntity
  8
0
  6
Continuous
 62
     7
370
    25
100
AcDbLine
 10
-156.7548773476
 20
27.6027287787
 30
0.0
 11
-157.8177888779
 21
45.1770762561
 31
0.0
  0
LINE
  5
23F
330
1F
100
AcDbEntity
  8
0
  6
Continuous
 62
     7
370
    25
100
AcDbLine
 10
-183.6468141377
 20
42.8906219684
 30
0.0
 11
-183.103802096
 21
40.9163103903
 31
0.0
  0
LINE
  5
240
330
1F
100
AcDbEntity
  8
0
  6
Continuous
 62
     7
370
    25
100
AcDbLine
 10
-103.3852609128
 20
49.6235485644
 30
0.0
 11
-109.4590619911
 21
49.127393245
 31
0.0
  0
LINE
  5
241
330
1F
100
AcDbEntity
  8
0
  6
Continuous
 62
     7
370
    25
100
AcDbLine
 10
93.0715762596
 20
113.9006104439
 30
0.0
 11
99.145377338
 21
114.3967657634
 31
0.0
  0
LINE
  5
242
330
1F
100
AcDbEntity
  8
0
  6
Continuous
 62
     7
370
    25
100
AcDbLine
 10
-157.8177888779
 20
45.1770762561
 30
0.0
 11
-151.7439877996
 21
45.6732315755
 31
0.0
  0
LINE
  5
243
330
1F
100
AcDbEntity
  8
0
  6
Continuous
 62
     7
370
    25
100
AcDbLine
 10
-183.103802096
 20
40.9163103903
 30
0.0
 11
-177.9950587168
 21
39.7747124147
 31
0.0
  0
LINE
  5
244
330
1F
100
AcDbEntity
  8
0
  6
Continuous
 62
     7
370
    25
100
AcDbLine
 10
117.8298740945
 20
146.0126443196
 30
0.0
 11
118.3728861362
 21
144.0383327415
 31
0.0
  0
LINE
  5
245
330
1F
100
AcDbEntity
  8
0
  6
Continuous
 62
     7
370
    25
100
AcDbLine
 10
118.3728861362
 20
144.0383327415
 30
0.0
 11
115.2170997055
 21
140.1983130309
 31
0.0
  0
LINE
  5
246
330
1F
100
AcDbEntity
  8
0
  6
Continuous
 62
     7
370
    25
100
AcDbLine
 10
-149.8836187665
 20
71.500354497
 30
0.0
 11
-125.437902369
 21
73.4972707727
 31
0.0
  0
LINE
  5
247
330
1F
100
AcDbEntity
  8
0
  6
Continuous
 62
     7
370
    25
100
AcDbLine
 10
-112.9046610598
 20
99.0935381407
 30
0.0
 11
-112.3616490181
 21
97.1192265626
 31
0.0
  0
LINE
  5
248
330
1F
100
AcDbEntity
  8
0
  6
Continuous
 62
     7
370
    25
100
AcDbLine
 10
-111.2987374877
 20
79.5448790853
 30
0.0
 11
-112.3616490181
 21
97.1192265626
 31
0.0
  0
LINE
  5
249
330
1F
100
AcDbEntity
  8
0
  6
Continuous
 62
     7
370
    25
100
AcDbLine
 10
-106.2878479398
 20
97.6153818821
 30
0.0
 11
-112.3616490181
 21
97.1192265626
 31
0.0
  0
LINE
  5
24A
330
1F
100
AcDbEntity
  8
0
  6
Continuous
 62
     7
370
    25
100
AcDbLine
 10
-135.0894609494
 20
125.3522256038
 30
0.0
 11
-134.5464489077
 21
123.3779140257
 31
0.0
  0
LINE
  5
24B
330
1F
100
AcDbEntity
  8
0
  6
Continuous
 62
     7
370
    25
100
AcDbLine
 10
-134.5464489077
 20
123.3779140257
 30
0.0
 11
-131.3645254737
 21
120.460118134
 31
0.0
  0
LINE
  5
24C
330
1F
100
AcDbEntity
  8
0
  6
Continuous
 62
     7
370
    25
100
AcDbLine
 10
28.1063844535
 20
181.1744044792
 30
0.0
 11
28.6493964952
 21
179.2000929011
 31
0.0
  0
LINE
  5
24D
330
1F
100
AcDbEntity
  8
0
  6
Continuous
 62
     7
370
    25
100
AcDbLine
 10
28.6493964952
 20
179.2000929011
 30
0.0
 11
27.9911850502
 21
175.083023555
 31
0.0
  0
LINE
  5
24E
330
1F
100
AcDbEntity
  8
0
  6
Continuous
 62
     7
370
    25
100
AcDbLine
 10
-50.4804954318
 20
174.7548168122
 30
0.0
 11
-49.9374833901
 21
172.7805052341
 31
0.0
  0
LINE
  5
24F
330
1F
100
AcDbEntity
  8
0
  6
Continuous
 62
     7
370
    25
100
AcDbLine
 10
-49.9374833901
 20
172.7805052341
 30
0.0
 11
-48.8370218796
 21
168.9729786454
 31
0.0
  0
ARC
  5
250
330
1F
100
AcDbEntity
  8
0
  6
Continuous
 62
     7
370
    25
100
AcDbCircle
 10
4.9484354706
 20
-18.0090907643
 30
0.0
 40
200.5748998383047
100
AcDbArc
 50
106.0424985513
 51
111.7246606401
  0
ARC
  5
251
330
1F
100
AcDbEntity
  8
0
  6
Continuous
 62
     7
370
    25
100
AcDbCircle
 10
4.7649055143
 20
-17.3412244229
 30
0.0
 40
193.8714755542357
100
AcDbArc
 50
106.0424985513
 51
111.7246606401
  0
ARC
  5
252
330
1F
100
AcDbEntity
  8
0
  6
Continuous
 62
     7
370
    25
100
AcDbCircle
 10
5.0925968146
 20
-12.0580965185
 30
0.0
 40
194.5981342750552
100
AcDbArc
 50
77.4101628173
 51
83.2081255933
  0
ARC
  5
253
330
1F
100
AcDbEntity
  8
0
  6
Continuous
 62
     7
370
    25
100
AcDbCircle
 10
4.9042488344
 20
-11.589118669
 30
0.0
 40
188.0944597874272
100
AcDbArc
 50
77.4101628173
 51
83.2081255933
  0
ARC
  5
254
330
1F
100
AcDbEntity
  8
0
  6
Continuous
 62
     7
370
    25
100
AcDbCircle
 10
11.3571762044
 20
1.5568863925
 30
0.0
 40
179.4544549302313
100
AcDbArc
 50
47.4876750654
 51
53.6075224708
  0
ARC
  5
255
330
1F
100
AcDbEntity
  8
0
  6
Continuous
 62
     7
370
    25
100
AcDbCircle
 10
10.9594593867
 20
1.5708371816
 30
0.0
 40
173.4568981470203
100
AcDbArc
 50
47.4876750654
 51
53.6075224708
  0
ARC
  5
256
330
1F
100
AcDbEntity
  8
0
  6
Continuous
 62
     7
370
    25
100
AcDbCircle
 10
18.3730681193
 20
7.1719355405
 30
0.0
 40
170.3828811994592
100
AcDbArc
 50
16.1215236113
 51
22.4567975294
  0
ARC
  5
257
330
1F
100
AcDbEntity
  8
0
  6
Continuous
 62
     7
370
    25
100
AcDbCircle
 10
17.7408728086
 20
6.9982254765
 30
0.0
 40
164.6885059593783
100
AcDbArc
 50
16.1215236113
 51
22.4567975294
  0
ARC
  5
258
330
1F
100
AcDbEntity
  8
0
  6
Continuous
 62
     7
370
    25
100
AcDbCircle
 10
12.6899367432
 20
7.4902692974
 30
0.0
 40
176.1024199903686
100
AcDbArc
 50
344.7122826352
 51
350.9095753734
  0
ARC
  5
259
330
1F
100
AcDbEntity
  8
0
  6
Continuous
 62
     7
370
    25
100
AcDbCircle
 10
12.2476776653
 20
7.3059201842
 30
0.0
 40
170.2168917433554
100
AcDbArc
 50
344.7122826352
 51
350.9095753734
  0
ARC
  5
25A
330
1F
100
AcDbEntity
  8
0
  6
Continuous
 62
     7
370
    25
100
AcDbCircle
 10
-0.4789109285
 20
14.4423891423
 30
0.0
 40
191.153433919939
100
AcDbArc
 50
314.710979723
 51
320.5784160565
  0
ARC
  5
25B
330
1F
100
AcDbEntity
  8
0
  6
Continuous
 62
     7
370
    25
100
AcDbCircle
 10
-0.4810532552
 20
14.0256928658
 30
0.0
 40
184.7648849442053
100
AcDbArc
 50
314.710979723
 51
320.5784160565
  0
ARC
  5
25C
330
1F
100
AcDbEntity
  8
0
  6
Continuous
 62
     7
370
    25
100
AcDbCircle
 10
-0.6071131548
 20
-10.4937659861
 30
0.0
 40
191.1534339199815
100
AcDbArc
 50
134.710979723
 51
140.5784160565
  0
ARC
  5
25D
330
1F
100
AcDbEntity
  8
0
  6
Continuous
 62
     7
370
    25
100
AcDbCircle
 10
-0.6049708282
 20
-10.0770697096
 30
0.0
 40
184.7648849441958
100
AcDbArc
 50
134.710979723
 51
140.5784160565
  0
ARC
  5
25E
330
1F
100
AcDbEntity
  8
0
  6
Continuous
 62
     7
370
    25
100
AcDbCircle
 10
-13.7759608265
 20
-3.5416461412
 30
0.0
 40
176.1024199903757
100
AcDbArc
 50
164.7122826352
 51
170.9095753734
  0
ARC
  5
25F
330
1F
100
AcDbEntity
  8
0
  6
Continuous
 62
     7
370
    25
100
AcDbCircle
 10
-13.3337017488
 20
-3.357297028
 30
0.0
 40
170.2168917433095
100
AcDbArc
 50
164.7122826352
 51
170.9095753734
  0
ARC
  5
260
330
1F
100
AcDbEntity
  8
0
  6
Continuous
 62
     7
370
    25
100
AcDbCircle
 10
-19.4590922026
 20
-3.2233123843
 30
0.0
 40
170.3828811994521
100
AcDbArc
 50
196.1215236113
 51
202.4567975294
  0
ARC
  5
261
330
1F
100
AcDbEntity
  8
0
  6
Continuous
 62
     7
370
    25
100
AcDbCircle
 10
-18.826896892
 20
-3.0496023203
 30
0.0
 40
164.6885059593804
100
AcDbArc
 50
196.1215236113
 51
202.4567975294
  0
ARC
  5
262
330
1F
100
AcDbEntity
  8
0
  6
Continuous
 62
     7
370
    25
100
AcDbCircle
 10
-12.4432002878
 20
2.3917367638
 30
0.0
 40
179.454454930213
100
AcDbArc
 50
227.4876750654
 51
233.6075224708
  0
ARC
  5
263
330
1F
100
AcDbEntity
  8
0
  6
Continuous
 62
     7
370
    25
100
AcDbCircle
 10
-12.0454834701
 20
2.3777859747
 30
0.0
 40
173.4568981470246
100
AcDbArc
 50
227.4876750654
 51
233.6075224708
  0
ARC
  5
264
330
1F
100
AcDbEntity
  8
0
  6
Continuous
 62
     7
370
    25
100
AcDbCircle
 10
0.1031468874
 20
12.0157235412
 30
0.0
 40
184.7104239337512
100
AcDbArc
 50
315.0475607356
 51
320.5788472481
  0
ARC
  5
265
330
1F
100
AcDbEntity
  8
0
  6
Continuous
 62
     7
370
    25
100
AcDbCircle
 10
-11.5584360628
 20
0.339053184
 30
0.0
 40
173.3715931913622
100
AcDbArc
 50
227.486921825
 51
233.0562375707
  0
ARC
  5
266
330
1F
100
AcDbEntity
  8
0
  6
Continuous
 62
     7
370
    25
100
AcDbCircle
 10
107.1097194303
 20
-63.7396788902
 30
0.0
 40
1.883514537803685
100
AcDbArc
 50
53.8477680076
 51
156.9088547502
  0
ARC
  5
267
330
1F
100
AcDbEntity
  8
0
  6
Continuous
 62
     7
370
    25
100
AcDbCircle
 10
12.8692571314
 20
5.3168442623
 30
0.0
 40
170.1369784583247
100
AcDbArc
 50
345.3196230306
 51
350.910304734
  0
ARC
  5
268
330
1F
100
AcDbEntity
  8
0
  6
Continuous
 62
     7
370
    25
100
AcDbCircle
 10
-98.3235029777
 20
-80.5210732053
 30
0.0
 40
1.883521269700141
100
AcDbArc
 50
53.8480257337
 51
156.9085970241
  0
ARC
  5
269
330
1F
100
AcDbEntity
  8
0
  6
Continuous
 62
     7
370
    25
100
AcDbCircle
 10
152.5269137657
 20
-11.1535971185
 30
0.0
 40
1.883514537803745
100
AcDbArc
 50
53.8477680077
 51
156.9088547501
  0
ARC
  5
26A
330
1F
100
AcDbEntity
  8
0
  6
Continuous
 62
     7
370
    25
100
AcDbCircle
 10
104.2460779277
 20
-16.3917770378
 30
0.0
 40
1.883514537803701
100
AcDbArc
 50
53.8477680076
 51
156.9088547502
  0
ARC
  5
26B
330
1F
100
AcDbEntity
  8
0
  6
Continuous
 62
     7
370
    25
100
AcDbCircle
 10
-18.2997368274
 20
-5.028988427
 30
0.0
 40
164.6718682908489
100
AcDbArc
 50
196.1213589436
 51
201.7491718023
  0
ARC
  5
26C
330
1F
100
AcDbEntity
  8
0
  6
Continuous
 62
     7
370
    25
100
AcDbCircle
 10
-101.1871444803
 20
-33.1731713529
 30
0.0
 40
1.883521269700166
100
AcDbArc
 50
53.8480257337
 51
156.9085970241
  0
ARC
  5
26D
330
1F
100
AcDbEntity
  8
0
  6
Continuous
 62
     7
370
    25
100
AcDbCircle
 10
149.6632722631
 20
36.194304734
 30
0.0
 40
1.883514537803659
100
AcDbArc
 50
53.8477680076
 51
156.9088547502
  0
ARC
  5
26E
330
1F
100
AcDbEntity
  8
0
  6
Continuous
 62
     7
370
    25
100
AcDbCircle
 10
101.3824364251
 20
30.9561248147
 30
0.0
 40
1.883514537803701
100
AcDbArc
 50
53.8477680077
 51
156.9088547502
  0
ARC
  5
26F
330
1F
100
AcDbEntity
  8
0
  6
Continuous
 62
     7
370
    25
100
AcDbCircle
 10
18.9046754553
 20
5.1932607256
 30
0.0
 40
170.39508776021
100
AcDbArc
 50
16.8103638102
 51
22.4566885558
  0
ARC
  5
270
330
1F
100
AcDbEntity
  8
0
  6
Continuous
 62
     7
370
    25
100
AcDbCircle
 10
-149.623762416
 20
-35.8356254114
 30
0.0
 40
1.883521269700196
100
AcDbArc
 50
53.8480257338
 51
156.9085970241
  0
ARC
  5
271
330
1F
100
AcDbEntity
  8
0
  6
Continuous
 62
     7
370
    25
100
AcDbCircle
 10
-104.0507859829
 20
14.1747304996
 30
0.0
 40
1.883521269700171
100
AcDbArc
 50
53.8480257337
 51
156.9085970241
  0
ARC
  5
272
330
1F
100
AcDbEntity
  8
0
  6
Continuous
 62
     7
370
    25
100
AcDbCircle
 10
98.5187949226
 20
78.3040266671
 30
0.0
 40
1.883514537803654
100
AcDbArc
 50
53.8477680076
 51
156.9088547502
  0
ARC
  5
273
330
1F
100
AcDbEntity
  8
0
  6
Continuous
 62
     7
370
    25
100
AcDbCircle
 10
-152.4874039186
 20
11.512276441
 30
0.0
 40
1.88352126970015
100
AcDbArc
 50
53.8480257337
 51
156.9085970241
  0
ARC
  5
274
330
1F
100
AcDbEntity
  8
0
  6
Continuous
 62
     7
370
    25
100
AcDbCircle
 10
-13.1535631443
 20
-5.5353714615
 30
0.0
 40
176.1841152505444
100
AcDbArc
 50
164.7129995633
 51
170.2901465562
  0
ARC
  5
275
330
1F
100
AcDbEntity
  8
0
  6
Continuous
 62
     7
370
    25
100
AcDbCircle
 10
-106.9144274855
 20
61.522632352
 30
0.0
 40
1.883521269700145
100
AcDbArc
 50
53.8480257337
 51
156.9085970241
  0
ARC
  5
276
330
1F
100
AcDbEntity
  8
0
  6
Continuous
 62
     7
370
    25
100
AcDbCircle
 10
11.8447850809
 20
-0.4885384517
 30
0.0
 40
179.5445705426964
100
AcDbArc
 50
48.0604015582
 51
53.6067548212
  0
ARC
  5
277
330
1F
100
AcDbEntity
  8
0
  6
Continuous
 62
     7
370
    25
100
AcDbCircle
 10
-0.0170770665
 20
-12.5131999965
 30
0.0
 40
191.2185837155559
100
AcDbArc
 50
134.7114811031
 51
140.1967297707
  0
ARC
  5
278
330
1F
100
AcDbEntity
  8
0
  6
Continuous
 62
     7
370
    25
100
AcDbCircle
 10
5.6289297822
 20
-14.0784866213
 30
0.0
 40
194.6446793259181
100
AcDbArc
 50
77.7189292564
 51
83.20777742
  0
ARC
  5
279
330
1F
100
AcDbEntity
  8
0
  6
Continuous
 62
     7
370
    25
100
AcDbCircle
 10
5.4920902483
 20
-19.9854404653
 30
0.0
 40
200.5770362107883
100
AcDbArc
 50
106.042514111
 51
111.652545649
  0
ENDSEC
  0
SECTION
  2
OBJECTS
  0
DICTIONARY
  5
C
330
0
100
AcDbDictionary
281
     1
  3
ACAD_GROUP
350
D
  3
ACAD_LAYOUT
350
1A
  3
ACAD_MLINESTYLE
350
17
  3
ACAD_PLOTSETTINGS
350
19
  3
ACAD_PLOTSTYLENAME
350
E
  3
ACAD_SCALELIST
350
47
  3
DWGPROPS
350
27A
  0
DICTIONARY
  5
D
102
{ACAD_REACTORS
330
C
102
}
330
C
100
AcDbDictionary
281
     1
  0
DICTIONARY
  5
1A
102
{ACAD_REACTORS
330
C
102
}
330
C
100
AcDbDictionary
281
     1
  3
Layout1
350
1E
  3
Layout2
350
26
  3
Model
350
22
  0
DICTIONARY
  5
17
102
{ACAD_REACTORS
330
C
102
}
330
C
100
AcDbDictionary
281
     1
  3
Standard
350
18
  0
DICTIONARY
  5
19
102
{ACAD_REACTORS
330
C
102
}
330
C
100
AcDbDictionary
281
     1
  0
ACDBDICTIONARYWDFLT
  5
E
102
{ACAD_REACTORS
330
C
102
}
330
C
100
AcDbDictionary
281
     1
  3
Normal
350
F
100
AcDbDictionaryWithDefault
340
F
  0
DICTIONARY
  5
47
102
{ACAD_REACTORS
330
C
102
}
330
C
100
AcDbDictionary
281
     1
  3
A0
350
48
  3
A1
350
49
  3
A2
350
4A
  3
A3
350
4B
  3
A4
350
4C
  3
A5
350
4D
  3
A6
350
4E
  3
A7
350
4F
  3
A8
350
50
  3
A9
350
51
  3
B0
350
52
  3
B1
350
53
  3
B2
350
54
  3
B3
350
55
  3
B4
350
56
  3
B5
350
57
  3
B6
350
58
  0
XRECORD
  5
27A
102
{ACAD_REACTORS
330
C
102
}
330
C
100
AcDbXrecord
280
     1
  1
DWGPROPS COOKIE
  2

  3

  4

  6

  7

  8
amaob
  9

300
=
301
=
302
=
303
=
304
=
305
=
306
=
307
=
308
=
309
=
 40
0.0
 41
2460726.71825985
 42
2460726.718346817
  1

 90
        0
  0
LAYOUT
  5
1E
102
{ACAD_REACTORS
330
1A
102
}
330
1A
100
AcDbPlotSettings
  1

  2
none_device
  4

  6

 40
0.0
 41
0.0
 42
0.0
 43
0.0
 44
0.0
 45
0.0
 46
0.0
 47
0.0
 48
0.0
 49
0.0
140
0.0
141
0.0
142
1.0
143
1.0
 70
   688
 72
     1
 73
     0
 74
     5
  7

 75
    16
147
1.0
148
0.0
149
0.0
100
AcDbLayout
  1
Layout1
 70
     1
 71
     1
 10
0.0
 20
0.0
 11
420.0
 21
297.0
 12
0.0
 22
0.0
 32
0.0
 14
1.0000000000E+20
 24
1.0000000000E+20
 34
1.0000000000E+20
 15
-1.0000000000E+20
 25
-1.0000000000E+20
 35
-1.0000000000E+20
146
0.0
 13
0.0
 23
0.0
 33
0.0
 16
1.0
 26
0.0
 36
0.0
 17
0.0
 27
1.0
 37
0.0
 76
     0
330
1B
  0
LAYOUT
  5
26
102
{ACAD_REACTORS
330
1A
102
}
330
1A
100
AcDbPlotSettings
  1

  2
none_device
  4

  6

 40
0.0
 41
0.0
 42
0.0
 43
0.0
 44
0.0
 45
0.0
 46
0.0
 47
0.0
 48
0.0
 49
0.0
140
0.0
141
0.0
142
1.0
143
1.0
 70
   688
 72
     1
 73
     0
 74
     5
  7

 75
    16
147
1.0
148
0.0
149
0.0
100
AcDbLayout
  1
Layout2
 70
     1
 71
     2
 10
0.0
 20
0.0
 11
0.0
 21
0.0
 12
0.0
 22
0.0
 32
0.0
 14
0.0
 24
0.0
 34
0.0
 15
0.0
 25
0.0
 35
0.0
146
0.0
 13
0.0
 23
0.0
 33
0.0
 16
1.0
 26
0.0
 36
0.0
 17
0.0
 27
1.0
 37
0.0
 76
     0
330
23
  0
LAYOUT
  5
22
102
{ACAD_REACTORS
330
1A
102
}
330
1A
100
AcDbPlotSettings
  1

  2
none_device
  4
ANSI_A_(11.00_x_8.50_Inches)
  6

 40
6.35
 41
19.05
 42
6.35000508
 43
19.05000254
 44
279.4
 45
215.9
 46
133.5093279392
 47
86.2418208928
 48
0.0
 49
0.0
140
0.0
141
0.0
142
0.02245192
143
1.0
 70
  1696
 72
     0
 73
     0
 74
     0
  7

 75
     0
147
0.0179189148
148
-1300.4909072572
149
0.0
100
AcDbLayout
  1
Model
 70
     1
 71
     0
 10
0.0
 20
0.0
 11
420.0
 21
297.0
 12
0.0
 22
0.0
 32
0.0
 14
-199.8101964366
 24
-182.7392638251
 34
0.0
 15
199.2514154043
 25
192.0616443459
 35
0.0
146
0.0
 13
0.0
 23
0.0
 33
0.0
 16
1.0
 26
0.0
 36
0.0
 17
0.0
 27
1.0
 37
0.0
 76
     0
330
1F
331
29
  0
MLINESTYLE
  5
18
102
{ACAD_REACTORS
330
17
102
}
330
17
100
AcDbMlineStyle
  2
Standard
 70
     0
  3

 62
   256
 51
90.0
 52
90.0
 71
     2
 49
0.5
 62
   256
  6
BYLAYER
 49
-0.5
 62
   256
  6
BYLAYER
  0
ACDBPLACEHOLDER
  5
F
102
{ACAD_REACTORS
330
E
102
}
330
E
  0
SCALE
  5
48
102
{ACAD_REACTORS
330
47
102
}
330
47
100
AcDbScale
 70
     0
300
1:1
140
1.0
141
1.0
290
     1
  0
SCALE
  5
49
102
{ACAD_REACTORS
330
47
102
}
330
47
100
AcDbScale
 70
     0
300
1:2
140
1.0
141
2.0
290
     0
  0
SCALE
  5
4A
102
{ACAD_REACTORS
330
47
102
}
330
47
100
AcDbScale
 70
     0
300
1:4
140
1.0
141
4.0
290
     0
  0
SCALE
  5
4B
102
{ACAD_REACTORS
330
47
102
}
330
47
100
AcDbScale
 70
     0
300
1:5
140
1.0
141
5.0
290
     0
  0
SCALE
  5
4C
102
{ACAD_REACTORS
330
47
102
}
330
47
100
AcDbScale
 70
     0
300
1:8
140
1.0
141
8.0
290
     0
  0
SCALE
  5
4D
102
{ACAD_REACTORS
330
47
102
}
330
47
100
AcDbScale
 70
     0
300
1:10
140
1.0
141
10.0
290
     0
  0
SCALE
  5
4E
102
{ACAD_REACTORS
330
47
102
}
330
47
100
AcDbScale
 70
     0
300
1:16
140
1.0
141
16.0
290
     0
  0
SCALE
  5
4F
102
{ACAD_REACTORS
330
47
102
}
330
47
100
AcDbScale
 70
     0
300
1:20
140
1.0
141
20.0
290
     0
  0
SCALE
  5
50
102
{ACAD_REACTORS
330
47
102
}
330
47
100
AcDbScale
 70
     0
300
1:30
140
1.0
141
30.0
290
     0
  0
SCALE
  5
51
102
{ACAD_REACTORS
330
47
102
}
330
47
100
AcDbScale
 70
     0
300
1:40
140
1.0
141
40.0
290
     0
  0
SCALE
  5
52
102
{ACAD_REACTORS
330
47
102
}
330
47
100
AcDbScale
 70
     0
300
1:50
140
1.0
141
50.0
290
     0
  0
SCALE
  5
53
102
{ACAD_REACTORS
330
47
102
}
330
47
100
AcDbScale
 70
     0
300
1:100
140
1.0
141
100.0
290
     0
  0
SCALE
  5
54
102
{ACAD_REACTORS
330
47
102
}
330
47
100
AcDbScale
 70
     0
300
2:1
140
2.0
141
1.0
290
     0
  0
SCALE
  5
55
102
{ACAD_REACTORS
330
47
102
}
330
47
100
AcDbScale
 70
     0
300
4:1
140
4.0
141
1.0
290
     0
  0
SCALE
  5
56
102
{ACAD_REACTORS
330
47
102
}
330
47
100
AcDbScale
 70
     0
300
8:1
140
8.0
141
1.0
290
     0
  0
SCALE
  5
57
102
{ACAD_REACTORS
330
47
102
}
330
47
100
AcDbScale
 70
     0
300
10:1
140
10.0
141
1.0
290
     0
  0
SCALE
  5
58
102
{ACAD_REACTORS
330
47
102
}
330
47
100
AcDbScale
 70
     0
300
100:1
140
100.0
141
1.0
290
     0
  0
ENDSEC
  0
EOF
